<svg width="94" height="96" viewBox="0 0 94 96" fill="none" xmlns="http://www.w3.org/2000/svg">
<rect y="0.0556641" width="93.1869" height="95.1695" rx="13" fill="#4FBDB7"/>
<path d="M32.7143 51.8535C32.1261 51.8535 31.5511 52.0279 31.062 52.3547C30.5729 52.6815 30.1917 53.146 29.9666 53.6894C29.7415 54.2329 29.6826 54.8309 29.7974 55.4078C29.9121 55.9847 30.1954 56.5146 30.6113 56.9305C31.0272 57.3465 31.5572 57.6297 32.1341 57.7445C32.711 57.8592 33.309 57.8003 33.8524 57.5752C34.3958 57.3501 34.8603 56.9689 35.1871 56.4799C35.5139 55.9908 35.6883 55.4158 35.6883 54.8276C35.6883 54.0388 35.375 53.2823 34.8173 52.7246C34.2595 52.1669 33.5031 51.8535 32.7143 51.8535ZM32.7143 56.3146C32.4202 56.3146 32.1327 56.2274 31.8881 56.064C31.6436 55.9006 31.453 55.6683 31.3405 55.3966C31.2279 55.1249 31.1985 54.8259 31.2558 54.5375C31.3132 54.249 31.4548 53.984 31.6628 53.7761C31.8708 53.5681 32.1357 53.4265 32.4242 53.3691C32.7126 53.3117 33.0116 53.3412 33.2833 53.4537C33.5551 53.5663 33.7873 53.7569 33.9507 54.0014C34.1141 54.246 34.2013 54.5335 34.2013 54.8276C34.2013 55.222 34.0446 55.6002 33.7658 55.8791C33.4869 56.1579 33.1087 56.3146 32.7143 56.3146Z" fill="white"/>
<path d="M62.4545 51.8535C61.8663 51.8535 61.2913 52.0279 60.8022 52.3547C60.3131 52.6815 59.932 53.146 59.7069 53.6894C59.4818 54.2329 59.4229 54.8309 59.5376 55.4078C59.6524 55.9847 59.9356 56.5146 60.3515 56.9305C60.7675 57.3465 61.2974 57.6297 61.8743 57.7445C62.4512 57.8592 63.0492 57.8003 63.5926 57.5752C64.1361 57.3501 64.6005 56.9689 64.9273 56.4799C65.2541 55.9908 65.4286 55.4158 65.4286 54.8276C65.4286 54.0388 65.1152 53.2823 64.5575 52.7246C63.9997 52.1669 63.2433 51.8535 62.4545 51.8535ZM62.4545 56.3146C62.1604 56.3146 61.8729 56.2274 61.6284 56.064C61.3838 55.9006 61.1932 55.6683 61.0807 55.3966C60.9681 55.1249 60.9387 54.8259 60.9961 54.5375C61.0534 54.249 61.1951 53.984 61.403 53.7761C61.611 53.5681 61.876 53.4265 62.1644 53.3691C62.4529 53.3117 62.7519 53.3412 63.0236 53.4537C63.2953 53.5663 63.5275 53.7569 63.6909 54.0014C63.8543 54.246 63.9415 54.5335 63.9415 54.8276C63.9415 55.222 63.7849 55.6002 63.506 55.8791C63.2271 56.1579 62.8489 56.3146 62.4545 56.3146Z" fill="white"/>
<path d="M40.8926 55.5713H54.2758V57.0583H40.8926V55.5713Z" fill="white"/>
<path d="M40.8926 52.5967H54.2758V54.0837H40.8926V52.5967Z" fill="white"/>
<path d="M45.3535 41.4443H49.8146V42.9314H45.3535V41.4443Z" fill="white"/>
<path d="M69.89 48.1359V46.6489C69.8883 46.0579 69.6527 45.4916 69.2348 45.0736C68.8168 44.6557 68.2505 44.4201 67.6595 44.4184H64.7152L63.1761 39.0205L62.7151 37.184C62.5942 36.7018 62.3156 36.2738 61.9236 35.968C61.5316 35.6623 61.0487 35.4962 60.5515 35.4962H54.2763V32.5222C54.2751 32.1282 54.118 31.7506 53.8394 31.472C53.5608 31.1934 53.1833 31.0363 52.7892 31.0352H42.3801C41.9861 31.0363 41.6085 31.1934 41.3299 31.472C41.0513 31.7506 40.8942 32.1282 40.8931 32.5222V35.4962H34.6178C34.1207 35.4962 33.6377 35.6623 33.2458 35.968C32.8538 36.2738 32.5752 36.7018 32.4542 37.184L32.0006 39.013L30.4541 44.4184H27.5098C26.9188 44.4201 26.3525 44.6557 25.9346 45.0736C25.5166 45.4916 25.2811 46.0579 25.2793 46.6489V48.1359C25.2805 48.5126 25.3773 48.8828 25.5607 49.2118C25.744 49.5408 26.0079 49.8179 26.3276 50.017C25.6555 50.7077 25.2794 51.6333 25.2793 52.597V61.5192C25.2803 61.8311 25.3471 62.1393 25.4752 62.4237C25.6033 62.7081 25.7899 62.9623 26.0228 63.1698V65.9802C26.0246 66.5713 26.2601 67.1376 26.6781 67.5555C27.096 67.9734 27.6623 68.209 28.2533 68.2108H34.2014C34.7925 68.209 35.3588 67.9734 35.7767 67.5555C36.1946 67.1376 36.4302 66.5713 36.432 65.9802V63.7497H58.7373V65.9802C58.7391 66.5713 58.9747 67.1376 59.3926 67.5555C59.8105 67.9734 60.3768 68.209 60.9679 68.2108H66.916C67.507 68.209 68.0733 67.9734 68.4913 67.5555C68.9092 67.1376 69.1447 66.5713 69.1465 65.9802V63.1698C69.3794 62.9623 69.566 62.7081 69.6941 62.4237C69.8223 62.1393 69.889 61.8311 69.89 61.5192V52.597C69.8899 51.6333 69.5138 50.7077 68.8417 50.017C69.1614 49.8179 69.4253 49.5408 69.6086 49.2118C69.792 48.8828 69.8888 48.5126 69.89 48.1359ZM42.3801 32.5222H52.7892V35.4962H42.3801V32.5222ZM33.8966 37.5483C33.9365 37.3871 34.0291 37.2439 34.1598 37.1415C34.2905 37.0391 34.4518 36.9834 34.6178 36.9833H60.5515C60.7176 36.9834 60.8788 37.0391 61.0095 37.1415C61.1402 37.2439 61.2329 37.3871 61.2727 37.5483L61.5032 38.4703H33.6661L33.8966 37.5483ZM33.2721 39.9573H61.8973L64.4401 48.8794H43.0567C42.8819 47.8404 42.3446 46.8969 41.5402 46.2164C40.7357 45.536 39.7162 45.1626 38.6625 45.1626C37.6089 45.1626 36.5893 45.536 35.7849 46.2164C34.9804 46.8969 34.4431 47.8404 34.2684 48.8794H30.7292L33.2721 39.9573ZM41.5325 48.8794H35.7926C35.9549 48.2415 36.3252 47.6758 36.8449 47.2717C37.3647 46.8677 38.0042 46.6483 38.6625 46.6483C39.3208 46.6483 39.9604 46.8677 40.4801 47.2717C40.9998 47.6758 41.3701 48.2415 41.5325 48.8794ZM26.7663 46.6489C26.7663 46.4517 26.8447 46.2626 26.9841 46.1232C27.1235 45.9837 27.3126 45.9054 27.5098 45.9054H30.0303L29.1827 48.8794H27.5098C27.3126 48.8794 27.1235 48.8011 26.9841 48.6617C26.8447 48.5222 26.7663 48.3331 26.7663 48.1359V46.6489ZM34.945 65.9802C34.945 66.1774 34.8666 66.3665 34.7272 66.506C34.5877 66.6454 34.3986 66.7237 34.2014 66.7237H28.2533C28.0562 66.7237 27.867 66.6454 27.7276 66.506C27.5882 66.3665 27.5098 66.1774 27.5098 65.9802V63.7497H34.945V65.9802ZM67.6595 65.9802C67.6595 66.1774 67.5812 66.3665 67.4417 66.506C67.3023 66.6454 67.1132 66.7237 66.916 66.7237H60.9679C60.7707 66.7237 60.5816 66.6454 60.4421 66.506C60.3027 66.3665 60.2244 66.1774 60.2244 65.9802V63.7497H67.6595V65.9802ZM68.403 61.5192C68.403 61.7163 68.3247 61.9055 68.1852 62.0449C68.0458 62.1843 67.8567 62.2627 67.6595 62.2627H27.5098C27.3126 62.2627 27.1235 62.1843 26.9841 62.0449C26.8447 61.9055 26.7663 61.7163 26.7663 61.5192V60.7756H68.403V61.5192ZM68.403 59.2886H26.7663V52.597C26.7681 52.006 27.0037 51.4397 27.4216 51.0217C27.8395 50.6038 28.4058 50.3682 28.9969 50.3665H66.1725C66.7635 50.3682 67.3298 50.6038 67.7477 51.0217C68.1657 51.4397 68.4012 52.006 68.403 52.597V59.2886ZM68.403 48.1359C68.403 48.3331 68.3247 48.5222 68.1852 48.6617C68.0458 48.8011 67.8567 48.8794 67.6595 48.8794H65.9866L65.139 45.9054H67.6595C67.8567 45.9054 68.0458 45.9837 68.1852 46.1232C68.3247 46.2626 68.403 46.4517 68.403 46.6489V48.1359Z" fill="white"/>
</svg>
