<svg width="94" height="97" viewBox="0 0 94 97" fill="none" xmlns="http://www.w3.org/2000/svg">
<rect y="0.930664" width="93.1869" height="95.1695" rx="13" fill="#F0BB1F"/>
<path d="M26.8549 35.5796C26.2669 35.5796 25.7858 35.0985 25.7752 34.5105V27.7858C25.7752 27.1872 26.2563 26.7061 26.8549 26.7061H33.5796C34.1676 26.7061 34.6487 27.1872 34.6487 27.7858V30.1272H60.521V27.7858C60.521 27.1978 61.0021 26.7167 61.5901 26.7061H68.3147C68.9027 26.7061 69.3838 27.1872 69.3945 27.7858V34.5105C69.3945 35.0985 68.9134 35.5796 68.3147 35.5796H65.9734V61.4519H68.3147C68.9027 61.4519 69.3838 61.933 69.3945 62.521V69.2456C69.3945 69.8336 68.9134 70.3147 68.3147 70.3254H61.5901C61.0021 70.3254 60.521 69.8443 60.521 69.2456V66.9043H34.6487V69.2456C34.6487 69.8336 34.1676 70.3147 33.5796 70.3254H26.8549C26.2669 70.3254 25.7858 69.8443 25.7752 69.2456V62.521C25.7752 61.933 26.2563 61.4519 26.8549 61.4519H29.1963V35.5796H26.8549ZM67.2563 33.4414V28.8443H62.6592V33.4414H67.2563ZM62.6592 68.1872H67.2563V63.5901H62.6592V68.1872ZM34.6487 62.521V64.7661H60.521V62.521C60.521 61.933 61.0021 61.4519 61.5901 61.4519H63.8352V35.5796H61.5901C61.0021 35.5796 60.521 35.0985 60.521 34.5105V32.2654H34.6487V34.5105C34.6487 35.0985 34.1676 35.5796 33.5796 35.5796H31.3345V61.4519H33.5796C34.1676 61.4519 34.6487 61.933 34.6487 62.521ZM27.9134 63.5901V68.1872H32.5105V63.5901H27.9134ZM32.5105 33.4414V28.8443H27.9134V33.4414H32.5105Z" fill="white"/>
</svg>
