<svg width="94" height="96" viewBox="0 0 94 96" fill="none" xmlns="http://www.w3.org/2000/svg">
<rect y="-0.00683594" width="93.1869" height="95.1695" rx="13" fill="#0C404D"/>
<path d="M65.0695 63.2976C64.177 63.3159 63.3003 63.0605 62.5572 62.5658C62.0041 62.2044 61.3576 62.012 60.6969 62.012C60.0361 62.012 59.3897 62.2044 58.8366 62.5658C58.0859 63.0438 57.2144 63.2976 56.3245 63.2976C55.4346 63.2976 54.5632 63.0438 53.8125 62.5658C53.2594 62.204 52.6128 62.0114 51.9519 62.0114C51.291 62.0114 50.6444 62.204 50.0913 62.5658C49.3406 63.0438 48.4691 63.2976 47.5792 63.2976C46.6893 63.2976 45.8179 63.0438 45.0672 62.5658C44.5145 62.2043 43.8683 62.0117 43.2079 62.0117C42.5474 62.0117 41.9012 62.2043 41.3485 62.5658C40.6679 63.0181 39.8736 63.2695 39.0567 63.2912L39.0117 62.0051C39.6151 61.9908 40.2011 61.7999 40.6971 61.4559C41.4476 60.9781 42.3188 60.7243 43.2085 60.7243C44.0982 60.7243 44.9694 60.9781 45.7199 61.4559C46.273 61.8175 46.9194 62.0101 47.5802 62.0101C48.241 62.0101 48.8874 61.8175 49.4405 61.4559C50.1913 60.9777 51.063 60.7236 51.9532 60.7236C52.8434 60.7236 53.715 60.9777 54.4658 61.4559C55.0189 61.8175 55.6654 62.0101 56.3262 62.0101C56.9869 62.0101 57.6334 61.8175 58.1865 61.4559C58.9372 60.9782 59.8086 60.7244 60.6985 60.7244C61.5884 60.7244 62.4598 60.9782 63.2105 61.4559C63.7649 61.8184 64.4129 62.0114 65.0753 62.0114C65.7377 62.0114 66.3857 61.8184 66.9401 61.4559C67.6824 60.9627 68.5576 60.7079 69.4486 60.7255V62.0115C68.7852 61.9934 68.1333 62.1873 67.5877 62.5652C66.8427 63.0606 65.964 63.3162 65.0695 63.2976Z" fill="white"/>
<path d="M30.0934 63.2978C29.201 63.3163 28.3244 63.0609 27.5817 62.5661C27.0362 62.1879 26.3842 61.9937 25.7207 62.0118V60.7257C26.6133 60.7072 27.4901 60.9625 28.233 61.4575C28.7782 61.8358 29.43 62.03 30.0934 62.0118C30.757 62.03 31.4091 61.8356 31.9543 61.4568C32.6957 60.9622 33.5711 60.707 34.4622 60.7257C35.3316 60.7062 36.1867 60.9498 36.9153 61.4247L36.2665 62.5346C35.7343 62.1764 35.1034 61.9936 34.4622 62.0118C33.8013 61.994 33.152 62.1877 32.6089 62.5648C31.8653 63.061 30.9872 63.3169 30.0934 63.2978Z" fill="white"/>
<path d="M65.0701 58.7958C64.177 58.814 63.2997 58.5587 62.5558 58.064C62.0022 57.7022 61.3552 57.5096 60.6939 57.5096C60.0326 57.5096 59.3856 57.7022 58.832 58.064C58.0814 58.5418 57.2101 58.7956 56.3203 58.7956C55.4305 58.7956 54.5592 58.5418 53.8086 58.064C53.2557 57.7025 52.6095 57.5099 51.9489 57.5099C51.2884 57.5099 50.6421 57.7025 50.0893 58.064C49.3387 58.542 48.4674 58.7958 47.5776 58.7958C46.6877 58.7958 45.8164 58.542 45.0658 58.064C44.513 57.7025 43.8668 57.5099 43.2062 57.5099C42.5456 57.5099 41.8994 57.7025 41.3465 58.064C40.6038 58.5589 39.7272 58.8143 38.8348 58.7958C37.9425 58.8143 37.0659 58.5589 36.3231 58.064C35.7781 57.6858 35.1266 57.4916 34.4634 57.5097C33.8005 57.4917 33.1492 57.6859 32.6044 58.064C31.8628 58.5584 30.9876 58.8137 30.0966 58.7958C29.204 58.8143 28.3272 58.5589 27.5842 58.064C27.0381 57.6851 26.3851 57.4908 25.7207 57.5097V56.2236C26.613 56.2052 27.4896 56.4606 28.2324 56.9554C28.7779 57.3336 29.4299 57.5278 30.0934 57.5097C30.7563 57.5277 31.4076 57.3335 31.9524 56.9554C32.694 56.4611 33.5692 56.2057 34.4602 56.2236C35.3532 56.2047 36.2306 56.4601 36.9739 56.9554C37.5191 57.3337 38.1708 57.5279 38.8342 57.5097C39.4975 57.5279 40.1493 57.3337 40.6945 56.9554C41.445 56.4774 42.3164 56.2235 43.2062 56.2235C44.096 56.2235 44.9674 56.4774 45.7179 56.9554C46.2708 57.317 46.9172 57.5096 47.5779 57.5096C48.2386 57.5096 48.8849 57.317 49.4379 56.9554C50.1884 56.4774 51.0597 56.2235 51.9496 56.2235C52.8394 56.2235 53.7107 56.4774 54.4613 56.9554C55.0142 57.317 55.6606 57.5096 56.3213 57.5096C56.9819 57.5096 57.6283 57.317 58.1812 56.9554C58.9325 56.4776 59.8045 56.2238 60.6949 56.2238C61.5853 56.2238 62.4572 56.4776 63.2085 56.9554C63.7625 57.3169 64.4096 57.5094 65.0711 57.5094C65.7325 57.5094 66.3797 57.3169 66.9336 56.9554C67.6773 56.4609 68.5544 56.2055 69.4473 56.2236V57.5097C68.7825 57.4909 68.1291 57.6851 67.5825 58.064C66.8392 58.5583 65.9626 58.8136 65.0701 58.7958Z" fill="white"/>
<path d="M65.0688 54.296C64.1763 54.3143 63.2995 54.0589 62.5564 53.5642C62.0109 53.1861 61.359 52.9919 60.6955 53.01C60.2085 52.9932 59.725 53.097 59.2879 53.3122L58.7207 52.1547C59.3346 51.8538 60.012 51.7054 60.6955 51.722C61.5891 51.7037 62.4668 51.9598 63.2104 52.4557C63.7648 52.8181 64.4128 53.0111 65.0752 53.0111C65.7376 53.0111 66.3856 52.8181 66.94 52.4557C67.682 51.9621 68.5569 51.7068 69.4479 51.7239V53.01C68.7844 52.9918 68.1325 53.1857 67.5869 53.5636C66.8419 54.059 65.9632 54.3146 65.0688 54.296Z" fill="white"/>
<path d="M56.3164 54.2958C55.4254 54.3145 54.55 54.0593 53.8086 53.5646C53.2555 53.2028 52.6089 53.0102 51.948 53.0102C51.287 53.0102 50.6404 53.2028 50.0873 53.5646C49.3366 54.0426 48.4652 54.2964 47.5753 54.2964C46.6854 54.2964 45.814 54.0426 45.0633 53.5646C44.5102 53.2031 43.8637 53.0105 43.203 53.0105C42.5422 53.0105 41.8957 53.2031 41.3427 53.5646C40.6 54.0587 39.724 54.3138 38.8322 54.2958C37.9399 54.3142 37.0633 54.0588 36.3205 53.564C35.775 53.1858 35.1231 52.9916 34.4596 53.0097C33.7987 52.9919 33.1494 53.1856 32.6063 53.5627C31.8634 54.0584 30.9863 54.3143 30.0934 54.2958C29.201 54.3142 28.3244 54.0588 27.5817 53.564C27.0362 53.1858 26.3842 52.9916 25.7207 53.0097V51.7236C26.6133 51.7051 27.4901 51.9605 28.2331 52.4554C28.7782 52.8337 29.43 53.0279 30.0934 53.0097C30.757 53.0279 31.4091 52.8335 31.9543 52.4547C32.6957 51.9601 33.5711 51.7049 34.4622 51.7236C35.3545 51.7052 36.231 51.9606 36.9739 52.4554C37.5191 52.8337 38.1708 53.0279 38.8342 53.0097C39.4977 53.0277 40.1496 52.8336 40.6951 52.4554C41.4458 51.9775 42.3172 51.7236 43.2071 51.7236C44.097 51.7236 44.9685 51.9775 45.7192 52.4554C46.2722 52.817 46.9187 53.0095 47.5795 53.0095C48.2403 53.0095 48.8867 52.817 49.4398 52.4554C50.1906 51.9771 51.0623 51.7231 51.9525 51.7231C52.8426 51.7231 53.7143 51.9771 54.4651 52.4554C55.0316 52.8364 55.7035 53.0301 56.3859 53.009C56.4355 53.0097 56.4851 53.0071 56.5344 53.0013L56.7055 54.2758C56.5764 54.2909 56.4464 54.2976 56.3164 54.2958Z" fill="white"/>
<path d="M65.0701 49.7938C64.177 49.8121 63.2997 49.5567 62.5558 49.0621C62.0022 48.7003 61.3552 48.5076 60.6939 48.5076C60.0326 48.5076 59.3856 48.7003 58.832 49.0621C58.0814 49.5399 57.2101 49.7936 56.3203 49.7936C55.4305 49.7936 54.5592 49.5399 53.8086 49.0621C53.2557 48.7005 52.6095 48.508 51.9489 48.508C51.2884 48.508 50.6421 48.7005 50.0893 49.0621C49.3387 49.54 48.4674 49.7939 47.5776 49.7939C46.6877 49.7939 45.8164 49.54 45.0658 49.0621C44.513 48.7005 43.8668 48.508 43.2062 48.508C42.5456 48.508 41.8994 48.7005 41.3465 49.0621C40.6038 49.557 39.7272 49.8124 38.8348 49.7938C37.9425 49.8124 37.0659 49.557 36.3231 49.0621C35.7781 48.6839 35.1266 48.4897 34.4634 48.5078C33.8005 48.4898 33.1492 48.684 32.6044 49.0621C31.8628 49.5564 30.9876 49.8118 30.0966 49.7938C29.204 49.8124 28.3272 49.557 27.5842 49.0621C27.0381 48.6831 26.3851 48.4889 25.7207 48.5078V47.2217C26.613 47.2032 27.4896 47.4586 28.2324 47.9535C28.7779 48.3316 29.4299 48.5258 30.0934 48.5078C30.7563 48.5258 31.4076 48.3316 31.9524 47.9535C32.694 47.4591 33.5692 47.2037 34.4602 47.2217C35.3532 47.2027 36.2306 47.4581 36.9739 47.9535C37.5191 48.3317 38.1708 48.526 38.8342 48.5078C39.4975 48.526 40.1493 48.3317 40.6945 47.9535C41.445 47.4754 42.3164 47.2215 43.2062 47.2215C44.096 47.2215 44.9674 47.4754 45.7179 47.9535C46.2708 48.3151 46.9172 48.5076 47.5779 48.5076C48.2386 48.5076 48.8849 48.3151 49.4379 47.9535C50.1884 47.4754 51.0597 47.2215 51.9496 47.2215C52.8394 47.2215 53.7107 47.4754 54.4613 47.9535C55.0142 48.3151 55.6606 48.5076 56.3213 48.5076C56.9819 48.5076 57.6283 48.3151 58.1812 47.9535C58.9325 47.4756 59.8045 47.2218 60.6949 47.2218C61.5853 47.2218 62.4572 47.4756 63.2085 47.9535C63.7625 48.315 64.4096 48.5074 65.0711 48.5074C65.7325 48.5074 66.3797 48.315 66.9336 47.9535C67.6773 47.4589 68.5544 47.2036 69.4473 47.2217V48.5078C68.7825 48.489 68.1291 48.6832 67.5825 49.0621C66.8392 49.5563 65.9626 49.8117 65.0701 49.7938Z" fill="white"/>
<path d="M55.9067 49.2483L54.6933 48.8226C55.0058 47.9247 55.1335 46.9729 55.0686 46.0244C55.0038 45.0759 54.7477 44.1504 54.3158 43.3034L49.8988 34.6539C49.8552 34.5685 49.8312 34.4744 49.8287 34.3785C49.8262 34.2827 49.8451 34.1874 49.8841 34.0998C49.9231 34.0122 49.9813 33.9344 50.0542 33.8722C50.1272 33.81 50.2132 33.7649 50.3059 33.7401L59.1084 31.3931C59.3953 31.318 59.6409 31.1328 59.7918 30.8776C59.9428 30.6224 59.9869 30.3179 59.9145 30.0304C59.8421 29.7429 59.6591 29.4956 59.4053 29.3423C59.1515 29.189 58.8474 29.1421 58.5592 29.2119L47.9054 31.7583C47.6776 31.8121 47.4653 31.9177 47.2849 32.0667C47.1045 32.2158 46.9608 32.4044 46.865 32.6179C46.7692 32.8314 46.7238 33.0641 46.7324 33.298C46.741 33.5318 46.8033 33.7606 46.9145 33.9665L50.0782 39.8439C50.1585 39.9932 50.1765 40.1683 50.1283 40.3308C50.0801 40.4934 49.9697 40.6304 49.821 40.712L45.7377 42.9626L45.1172 41.836L48.6423 39.8927L45.7834 34.5761C45.5789 34.1966 45.4644 33.7751 45.4488 33.3442C45.4332 32.9133 45.5169 32.4847 45.6934 32.0913C45.8699 31.698 46.1345 31.3505 46.4668 31.0758C46.7991 30.8011 47.1901 30.6064 47.6096 30.507L58.2583 27.9612C58.8782 27.8045 59.535 27.9006 60.0841 28.2282C60.6332 28.5557 61.0297 29.0881 61.1864 29.708C61.343 30.3279 61.247 30.9847 60.9194 31.5338C60.5918 32.0829 60.0595 32.4794 59.4396 32.6361L51.4055 34.7774L55.4617 42.7176C55.9725 43.7199 56.2752 44.8151 56.3517 45.9375C56.4282 47.0598 56.2768 48.186 55.9067 49.2483Z" fill="white"/>
<path d="M42.869 43.0847L35.0547 47.3906L35.675 48.5165L43.4894 44.2105L42.869 43.0847Z" fill="white"/>
<path d="M61.731 44.9708C60.7771 44.9708 59.8447 44.6879 59.0516 44.158C58.2585 43.628 57.6403 42.8748 57.2753 41.9936C56.9103 41.1123 56.8148 40.1426 57.0009 39.2071C57.187 38.2716 57.6463 37.4122 58.3208 36.7378C58.9952 36.0633 59.8546 35.604 60.7901 35.4179C61.7256 35.2318 62.6953 35.3273 63.5766 35.6923C64.4578 36.0573 65.211 36.6755 65.741 37.4686C66.2709 38.2617 66.5538 39.1941 66.5538 40.148C66.5524 41.4266 66.0438 42.6525 65.1397 43.5567C64.2355 44.4608 63.0096 44.9694 61.731 44.9708ZM61.731 36.6113C61.0315 36.6113 60.3477 36.8187 59.7661 37.2073C59.1845 37.5959 58.7312 38.1483 58.4635 38.7945C58.1958 39.4408 58.1258 40.1519 58.2622 40.838C58.3987 41.524 58.7355 42.1542 59.2302 42.6488C59.7248 43.1434 60.355 43.4803 61.041 43.6167C61.7271 43.7532 62.4382 43.6831 63.0844 43.4155C63.7307 43.1478 64.283 42.6945 64.6716 42.1129C65.0603 41.5313 65.2677 40.8475 65.2677 40.148C65.2665 39.2103 64.8935 38.3115 64.2305 37.6485C63.5675 36.9855 62.6686 36.6125 61.731 36.6113Z" fill="white"/>
</svg>
