<svg width="13" height="13" viewBox="0 0 13 13" fill="none" xmlns="http://www.w3.org/2000/svg">
<path d="M8.86842 2.6094C8.40503 2.60901 7.95024 2.74075 7.55263 2.99054C7.26435 2.29607 6.7581 1.72621 6.11818 1.37583C5.47826 1.02546 4.74329 0.915729 4.03566 1.06491C3.32804 1.21409 2.69045 1.61319 2.22908 2.19573C1.76771 2.77828 1.5104 3.50912 1.5 4.26656V6.47612C1.50076 7.25878 1.76539 8.01592 2.24704 8.61343C2.7287 9.21095 3.39628 9.61029 4.13158 9.74073V11.4476C4.13158 11.5941 4.18703 11.7346 4.28573 11.8382C4.38444 11.9418 4.51831 12 4.65789 12C4.79748 12 4.93135 11.9418 5.03006 11.8382C5.12876 11.7346 5.18421 11.5941 5.18421 11.4476V9.74073C5.72038 9.64308 6.22397 9.40352 6.64737 9.04472C6.83527 9.36124 7.0823 9.63454 7.37357 9.84815C7.66484 10.0618 7.9943 10.2112 8.34211 10.2876V11.4476C8.34211 11.5941 8.39756 11.7346 8.49626 11.8382C8.59496 11.9418 8.72883 12 8.86842 12C9.00801 12 9.14188 11.9418 9.24058 11.8382C9.33929 11.7346 9.39474 11.5941 9.39474 11.4476V10.2876C9.98914 10.1603 10.5234 9.82128 10.907 9.32804C11.2906 8.83481 11.5001 8.2176 11.5 7.58089V5.37134C11.5 4.63883 11.2227 3.93632 10.7292 3.41835C10.2357 2.90039 9.56636 2.6094 8.86842 2.6094ZM6.23684 5.37134V7.58089C6.24188 7.68637 6.25242 7.79148 6.26842 7.89575C5.98694 8.2476 5.60796 8.49861 5.18421 8.61386V7.0285C5.18421 6.882 5.12876 6.7415 5.03006 6.63791C4.93135 6.53431 4.79748 6.47612 4.65789 6.47612C4.51831 6.47612 4.38444 6.53431 4.28573 6.63791C4.18703 6.7415 4.13158 6.882 4.13158 7.0285V8.60833C3.6808 8.48618 3.28132 8.21065 2.99563 7.82485C2.70993 7.43905 2.55414 6.96473 2.55263 6.47612V4.26656C2.55126 3.82883 2.6738 3.40053 2.9047 3.03601C3.13561 2.67148 3.46447 2.38715 3.84958 2.21908C4.23469 2.05102 4.65868 2.00679 5.06777 2.09202C5.47687 2.17724 5.85262 2.38808 6.14737 2.69778C6.43229 3.00084 6.62626 3.38495 6.70526 3.80256C6.40102 4.26346 6.23764 4.81063 6.23684 5.37134ZM10.4474 7.58089C10.4465 7.92279 10.3448 8.25602 10.1563 8.5349C9.9679 8.81378 9.70187 9.02466 9.39474 9.13863V7.0285C9.39474 6.882 9.33929 6.7415 9.24058 6.63791C9.14188 6.53431 9.00801 6.47612 8.86842 6.47612C8.72883 6.47612 8.59496 6.53431 8.49626 6.63791C8.39756 6.7415 8.34211 6.882 8.34211 7.0285V9.13863C8.03497 9.02466 7.76895 8.81378 7.58049 8.5349C7.39204 8.25602 7.29039 7.92279 7.28947 7.58089V5.37134C7.28947 4.93183 7.45583 4.51032 7.75194 4.19955C8.04805 3.88877 8.44966 3.71417 8.86842 3.71417C9.28718 3.71417 9.6888 3.88877 9.98491 4.19955C10.281 4.51032 10.4474 4.93183 10.4474 5.37134V7.58089Z" fill="#2D8F8A"/>
</svg>
