<svg width="18" height="18" viewBox="0 0 18 18" fill="none" xmlns="http://www.w3.org/2000/svg">
<path d="M1.34961 4.5C1.53331 4.50002 1.71061 4.56747 1.84789 4.68954C1.98516 4.81161 2.07287 4.97981 2.09436 5.16225L2.09961 5.25V9.75H6.59961V6C6.59963 5.8163 6.66708 5.639 6.78914 5.50172C6.91121 5.36444 7.07942 5.27674 7.26186 5.25525L7.34961 5.25H13.3496C13.9235 5.24997 14.4757 5.46924 14.8933 5.86296C15.3109 6.25668 15.5622 6.79508 15.5959 7.368L15.5996 7.5V13.5C15.5994 13.6912 15.5262 13.875 15.395 14.014C15.2637 14.153 15.0844 14.2367 14.8936 14.2479C14.7027 14.2591 14.5148 14.197 14.3682 14.0743C14.2216 13.9516 14.1274 13.7776 14.1049 13.5877L14.0996 13.5V11.25H2.09961V13.5C2.0994 13.6912 2.0262 13.875 1.89497 14.014C1.76375 14.153 1.58439 14.2367 1.39356 14.2479C1.20273 14.2591 1.01482 14.197 0.868235 14.0743C0.721645 13.9516 0.627437 13.7776 0.604859 13.5877L0.599609 13.5V5.25C0.599609 5.05109 0.678627 4.86032 0.819279 4.71967C0.959931 4.57902 1.1507 4.5 1.34961 4.5Z" fill="#D26D6D"/>
<path d="M4.34961 6C4.64147 6.00009 4.92696 6.08533 5.1711 6.24526C5.41524 6.40519 5.60741 6.63287 5.72408 6.9004C5.84075 7.16792 5.87683 7.46367 5.82792 7.7514C5.779 8.03913 5.64721 8.30634 5.44869 8.52028C5.25017 8.73423 4.99355 8.88561 4.71028 8.95588C4.427 9.02614 4.12938 9.01225 3.85389 8.91589C3.5784 8.81953 3.337 8.64489 3.15928 8.41338C2.98157 8.18186 2.87525 7.90354 2.85336 7.6125L2.84961 7.5L2.85336 7.3875C2.88174 7.01013 3.05171 6.65744 3.3292 6.40012C3.60668 6.1428 3.97118 5.99988 4.34961 6Z" fill="#D26D6D"/>
</svg>
