<svg width="106" height="18" viewBox="0 0 106 18" fill="none" xmlns="http://www.w3.org/2000/svg">
<g clip-path="url(#clip0_3547_1918)">
<path d="M9.44071 14.2096C9.16931 14.0452 8.829 14.0452 8.55761 14.2097L4.39532 16.7325C3.75017 17.1235 2.95263 16.545 3.12406 15.8103L4.22755 11.0813C4.29924 10.7741 4.19529 10.4524 3.95739 10.2452L0.293637 7.05464C-0.273874 6.56042 0.031211 5.62693 0.781053 5.56325L5.60934 5.15324C5.92375 5.12654 6.19766 4.92825 6.3212 4.63789L8.21605 0.184418C8.51015 -0.506786 9.48985 -0.506785 9.78395 0.184419L11.6788 4.6379C11.8023 4.92825 12.0762 5.12654 12.3907 5.15324L17.2189 5.56325C17.9688 5.62693 18.2739 6.56042 17.7064 7.05464L14.0426 10.2452C13.8047 10.4524 13.7008 10.7741 13.7725 11.0813L14.876 15.8106C15.0474 16.5452 14.25 17.1238 13.6048 16.7328L9.44071 14.2096Z" fill="#E0E8F1"/>
</g>
<g clip-path="url(#clip1_3547_1918)">
<path d="M31.4407 14.2096C31.1693 14.0452 30.829 14.0452 30.5576 14.2097L26.3953 16.7325C25.7502 17.1235 24.9526 16.545 25.1241 15.8103L26.2275 11.0813C26.2992 10.7741 26.1953 10.4524 25.9574 10.2452L22.2936 7.05464C21.7261 6.56042 22.0312 5.62693 22.7811 5.56325L27.6093 5.15324C27.9238 5.12654 28.1977 4.92825 28.3212 4.63789L30.2161 0.184418C30.5101 -0.506786 31.4899 -0.506785 31.7839 0.184419L33.6788 4.6379C33.8023 4.92825 34.0762 5.12654 34.3907 5.15324L39.2189 5.56325C39.9688 5.62693 40.2739 6.56042 39.7064 7.05464L36.0426 10.2452C35.8047 10.4524 35.7008 10.7741 35.7725 11.0813L36.876 15.8106C37.0474 16.5452 36.25 17.1238 35.6048 16.7328L31.4407 14.2096Z" fill="#E0E8F1"/>
</g>
<g clip-path="url(#clip2_3547_1918)">
<path d="M53.4407 14.2096C53.1693 14.0452 52.829 14.0452 52.5576 14.2097L48.3953 16.7325C47.7502 17.1235 46.9526 16.545 47.1241 15.8103L48.2275 11.0813C48.2992 10.7741 48.1953 10.4524 47.9574 10.2452L44.2936 7.05464C43.7261 6.56042 44.0312 5.62693 44.7811 5.56325L49.6093 5.15324C49.9238 5.12654 50.1977 4.92825 50.3212 4.63789L52.2161 0.184418C52.5101 -0.506786 53.4899 -0.506785 53.7839 0.184419L55.6788 4.6379C55.8023 4.92825 56.0762 5.12654 56.3907 5.15324L61.2189 5.56325C61.9688 5.62693 62.2739 6.56042 61.7064 7.05464L58.0426 10.2452C57.8047 10.4524 57.7008 10.7741 57.7725 11.0813L58.876 15.8106C59.0474 16.5452 58.25 17.1238 57.6048 16.7328L53.4407 14.2096Z" fill="#E0E8F1"/>
</g>
<g clip-path="url(#clip3_3547_1918)">
<path d="M75.4407 14.2096C75.1693 14.0452 74.829 14.0452 74.5576 14.2097L70.3953 16.7325C69.7502 17.1235 68.9526 16.545 69.1241 15.8103L70.2275 11.0813C70.2992 10.7741 70.1953 10.4524 69.9574 10.2452L66.2936 7.05464C65.7261 6.56042 66.0312 5.62693 66.7811 5.56325L71.6093 5.15324C71.9238 5.12654 72.1977 4.92825 72.3212 4.63789L74.2161 0.184418C74.5101 -0.506786 75.4899 -0.506785 75.7839 0.184419L77.6788 4.6379C77.8023 4.92825 78.0762 5.12654 78.3907 5.15324L83.2189 5.56325C83.9688 5.62693 84.2739 6.56042 83.7064 7.05464L80.0426 10.2452C79.8047 10.4524 79.7008 10.7741 79.7725 11.0813L80.876 15.8106C81.0474 16.5452 80.25 17.1238 79.6048 16.7328L75.4407 14.2096Z" fill="#E0E8F1"/>
</g>
<g clip-path="url(#clip4_3547_1918)">
<path d="M97.4407 14.2096C97.1693 14.0452 96.829 14.0452 96.5576 14.2097L92.3953 16.7325C91.7502 17.1235 90.9526 16.545 91.1241 15.8103L92.2275 11.0813C92.2992 10.7741 92.1953 10.4524 91.9574 10.2452L88.2936 7.05464C87.7261 6.56042 88.0312 5.62693 88.7811 5.56325L93.6093 5.15324C93.9238 5.12654 94.1977 4.92825 94.3212 4.63789L96.2161 0.184418C96.5101 -0.506786 97.4899 -0.506785 97.7839 0.184419L99.6788 4.6379C99.8023 4.92825 100.076 5.12654 100.391 5.15324L105.219 5.56325C105.969 5.62693 106.274 6.56042 105.706 7.05464L102.043 10.2452C101.805 10.4524 101.701 10.7741 101.772 11.0813L102.876 15.8106C103.047 16.5452 102.25 17.1238 101.605 16.7328L97.4407 14.2096Z" fill="#E0E8F1"/>
</g>
<defs>
<clipPath id="clip0_3547_1918">
<rect width="18" height="17.25" fill="white"/>
</clipPath>
<clipPath id="clip1_3547_1918">
<rect width="18" height="17.25" fill="white" transform="translate(22)"/>
</clipPath>
<clipPath id="clip2_3547_1918">
<rect width="18" height="17.25" fill="white" transform="translate(44)"/>
</clipPath>
<clipPath id="clip3_3547_1918">
<rect width="18" height="17.25" fill="white" transform="translate(66)"/>
</clipPath>
<clipPath id="clip4_3547_1918">
<rect width="18" height="17.25" fill="white" transform="translate(88)"/>
</clipPath>
</defs>
</svg>
