<svg width="106" height="18" viewBox="0 0 106 18" fill="none" xmlns="http://www.w3.org/2000/svg">
<g clip-path="url(#clip0_3547_1882)">
<path d="M9.44071 14.5436C9.16931 14.3792 8.829 14.3792 8.55761 14.5437L4.39532 17.0665C3.75017 17.4575 2.95263 16.8789 3.12406 16.1443L4.22755 11.4153C4.29924 11.1081 4.19529 10.7864 3.95739 10.5792L0.293637 7.38862C-0.273874 6.8944 0.031211 5.96092 0.781053 5.89724L5.60934 5.48723C5.92375 5.46053 6.19766 5.26223 6.3212 4.97188L8.21605 0.518403C8.51015 -0.172801 9.48985 -0.172801 9.78395 0.518404L11.6788 4.97188C11.8023 5.26224 12.0762 5.46053 12.3907 5.48723L17.2189 5.89724C17.9688 5.96092 18.2739 6.8944 17.7064 7.38862L14.0426 10.5792C13.8047 10.7864 13.7008 11.1081 13.7725 11.4153L14.876 16.1446C15.0474 16.8792 14.25 17.4578 13.6048 17.0668L9.44071 14.5436Z" fill="#FFC500"/>
</g>
<g clip-path="url(#clip1_3547_1882)">
<path d="M31.4407 14.5436C31.1693 14.3792 30.829 14.3792 30.5576 14.5437L26.3953 17.0665C25.7502 17.4575 24.9526 16.8789 25.1241 16.1443L26.2275 11.4153C26.2992 11.1081 26.1953 10.7864 25.9574 10.5792L22.2936 7.38862C21.7261 6.8944 22.0312 5.96092 22.7811 5.89724L27.6093 5.48723C27.9238 5.46053 28.1977 5.26223 28.3212 4.97188L30.2161 0.518403C30.5101 -0.172801 31.4899 -0.172801 31.7839 0.518404L33.6788 4.97188C33.8023 5.26224 34.0762 5.46053 34.3907 5.48723L39.2189 5.89724C39.9688 5.96092 40.2739 6.8944 39.7064 7.38862L36.0426 10.5792C35.8047 10.7864 35.7008 11.1081 35.7725 11.4153L36.876 16.1446C37.0474 16.8792 36.25 17.4578 35.6048 17.0668L31.4407 14.5436Z" fill="#E0E8F1"/>
<mask id="mask0_3547_1882" style="mask-type:alpha" maskUnits="userSpaceOnUse" x="22" y="0" width="18" height="18">
<path d="M31.4407 14.5436C31.1693 14.3792 30.829 14.3792 30.5576 14.5437L26.3953 17.0665C25.7502 17.4575 24.9526 16.8789 25.1241 16.1443L26.2275 11.4153C26.2992 11.1081 26.1953 10.7864 25.9574 10.5792L22.2936 7.38862C21.7261 6.8944 22.0312 5.96092 22.7811 5.89724L27.6093 5.48723C27.9238 5.46053 28.1977 5.26223 28.3212 4.97188L30.2161 0.518403C30.5101 -0.172801 31.4899 -0.172801 31.7839 0.518404L33.6788 4.97188C33.8023 5.26224 34.0762 5.46053 34.3907 5.48723L39.2189 5.89724C39.9688 5.96092 40.2739 6.8944 39.7064 7.38862L36.0426 10.5792C35.8047 10.7864 35.7008 11.1081 35.7725 11.4153L36.876 16.1446C37.0474 16.8792 36.25 17.4578 35.6048 17.0668L31.4407 14.5436Z" fill="#E0E8F1"/>
</mask>
<g mask="url(#mask0_3547_1882)">
<rect x="22" width="9" height="17.1907" fill="#FFC500"/>
</g>
</g>
<g clip-path="url(#clip2_3547_1882)">
<path d="M53.4407 14.2096C53.1693 14.0452 52.829 14.0452 52.5576 14.2097L48.3953 16.7325C47.7502 17.1235 46.9526 16.545 47.1241 15.8103L48.2275 11.0813C48.2992 10.7741 48.1953 10.4524 47.9574 10.2452L44.2936 7.05464C43.7261 6.56042 44.0312 5.62693 44.7811 5.56325L49.6093 5.15324C49.9238 5.12654 50.1977 4.92825 50.3212 4.63789L52.2161 0.184418C52.5101 -0.506786 53.4899 -0.506785 53.7839 0.184419L55.6788 4.6379C55.8023 4.92825 56.0762 5.12654 56.3907 5.15324L61.2189 5.56325C61.9688 5.62693 62.2739 6.56042 61.7064 7.05464L58.0426 10.2452C57.8047 10.4524 57.7008 10.7741 57.7725 11.0813L58.876 15.8106C59.0474 16.5452 58.25 17.1238 57.6048 16.7328L53.4407 14.2096Z" fill="#E0E8F1"/>
</g>
<g clip-path="url(#clip3_3547_1882)">
<path d="M75.4407 14.2096C75.1693 14.0452 74.829 14.0452 74.5576 14.2097L70.3953 16.7325C69.7502 17.1235 68.9526 16.545 69.1241 15.8103L70.2275 11.0813C70.2992 10.7741 70.1953 10.4524 69.9574 10.2452L66.2936 7.05464C65.7261 6.56042 66.0312 5.62693 66.7811 5.56325L71.6093 5.15324C71.9238 5.12654 72.1977 4.92825 72.3212 4.63789L74.2161 0.184418C74.5101 -0.506786 75.4899 -0.506785 75.7839 0.184419L77.6788 4.6379C77.8023 4.92825 78.0762 5.12654 78.3907 5.15324L83.2189 5.56325C83.9688 5.62693 84.2739 6.56042 83.7064 7.05464L80.0426 10.2452C79.8047 10.4524 79.7008 10.7741 79.7725 11.0813L80.876 15.8106C81.0474 16.5452 80.25 17.1238 79.6048 16.7328L75.4407 14.2096Z" fill="#E0E8F1"/>
</g>
<g clip-path="url(#clip4_3547_1882)">
<path d="M97.4407 14.2096C97.1693 14.0452 96.829 14.0452 96.5576 14.2097L92.3953 16.7325C91.7502 17.1235 90.9526 16.545 91.1241 15.8103L92.2275 11.0813C92.2992 10.7741 92.1953 10.4524 91.9574 10.2452L88.2936 7.05464C87.7261 6.56042 88.0312 5.62693 88.7811 5.56325L93.6093 5.15324C93.9238 5.12654 94.1977 4.92825 94.3212 4.63789L96.2161 0.184418C96.5101 -0.506786 97.4899 -0.506785 97.7839 0.184419L99.6788 4.6379C99.8023 4.92825 100.076 5.12654 100.391 5.15324L105.219 5.56325C105.969 5.62693 106.274 6.56042 105.706 7.05464L102.043 10.2452C101.805 10.4524 101.701 10.7741 101.772 11.0813L102.876 15.8106C103.047 16.5452 102.25 17.1238 101.605 16.7328L97.4407 14.2096Z" fill="#E0E8F1"/>
</g>
<defs>
<clipPath id="clip0_3547_1882">
<rect width="18" height="17.25" fill="white"/>
</clipPath>
<clipPath id="clip1_3547_1882">
<rect width="18" height="17.25" fill="white" transform="translate(22)"/>
</clipPath>
<clipPath id="clip2_3547_1882">
<rect width="18" height="17.25" fill="white" transform="translate(44)"/>
</clipPath>
<clipPath id="clip3_3547_1882">
<rect width="18" height="17.25" fill="white" transform="translate(66)"/>
</clipPath>
<clipPath id="clip4_3547_1882">
<rect width="18" height="17.25" fill="white" transform="translate(88)"/>
</clipPath>
</defs>
</svg>
