<svg width="21" height="19" viewBox="0 0 21 19" fill="none" xmlns="http://www.w3.org/2000/svg">
<path fill-rule="evenodd" clip-rule="evenodd" d="M16.5331 1.30103C18.6281 2.52203 20.1021 5.00103 20.0371 7.89303C19.9561 11.503 17.1471 14.687 12.3581 17.531C11.6481 17.953 10.9001 18.5 10.0391 18.5C9.19413 18.5 8.41413 17.943 7.71913 17.53C2.93213 14.687 0.12213 11.502 0.0411302 7.89303C-0.0238698 5.00103 1.45013 2.52303 3.54513 1.30103C5.50513 0.160034 7.96713 0.153034 10.0391 1.83803C12.1111 0.153034 14.5731 0.159034 16.5331 1.30103ZM15.5261 3.03003C14.1321 2.21803 12.3901 2.24703 10.8821 3.77303C10.7716 3.884 10.6402 3.97204 10.4955 4.03212C10.3509 4.0922 10.1958 4.12312 10.0391 4.12312C9.88249 4.12312 9.72739 4.0922 9.58273 4.03212C9.43807 3.97204 9.30669 3.884 9.19613 3.77303C7.68813 2.24703 5.94613 2.21803 4.55213 3.03003C3.10813 3.87203 1.99213 5.65803 2.04113 7.85003C2.09713 10.361 4.08113 13.044 8.74113 15.812C9.14913 16.055 9.57513 16.366 10.0391 16.495C10.5031 16.366 10.9291 16.055 11.3371 15.812C15.9971 13.044 17.9811 10.362 18.0371 7.84903C18.0871 5.65903 16.9701 3.87203 15.5261 3.03003Z" fill="#C4C4C4"/>
</svg>
