<svg width="25" height="23" viewBox="0 0 25 23" fill="none" xmlns="http://www.w3.org/2000/svg">
<path fill-rule="evenodd" clip-rule="evenodd" d="M2.36523 5.59179C2.36523 3.93494 3.70838 2.5918 5.36523 2.5918H14.9793C16.6361 2.5918 17.9793 3.93494 17.9793 5.5918V7.36208L15.5158 9.82552C15.3224 9.50908 14.9738 9.29787 14.5758 9.29787H5.76876C5.16077 9.29787 4.66789 9.79075 4.66789 10.3987C4.66789 11.0067 5.16077 11.4996 5.76876 11.4996H13.8417L11.5927 13.7486C11.4916 13.718 11.3843 13.7015 11.2731 13.7015H5.76876C5.16077 13.7015 4.66789 14.1944 4.66789 14.8024C4.66789 15.4104 5.16077 15.9033 5.76876 15.9033H10.2755L9.98363 17.1334C9.71009 18.2864 10.4796 19.347 11.5355 19.5586C11.8063 19.6129 12.0959 19.6113 12.3916 19.5412L14.1681 19.1197L14.1681 19.1196L14.1681 19.1197C14.5288 19.0341 14.8585 18.85 15.1206 18.588L15.1204 18.5877L15.1206 18.5879L17.9793 15.7293V17.4076C17.9793 19.0644 16.6361 20.4076 14.9793 20.4076H5.36523C3.70838 20.4076 2.36523 19.0644 2.36523 17.4076V5.59179ZM19.9793 13.7289V17.4076C19.9793 20.169 17.7407 22.4076 14.9793 22.4076H5.36523C2.60381 22.4076 0.365234 20.169 0.365234 17.4076V5.59179C0.365234 2.83037 2.60381 0.591797 5.36523 0.591797H14.9793C17.7119 0.591797 19.9325 2.78389 19.9785 5.50551C20.7281 5.12877 21.6652 5.25324 22.2909 5.87891L23.6458 7.23389C24.4269 8.01494 24.4269 9.28127 23.6458 10.0623L19.9793 13.7289ZM11.93 17.5951L13.7061 17.1737L22.2316 8.64811L20.8766 7.29313L19.7031 8.46663C19.6976 8.47241 19.692 8.47814 19.6864 8.48381L12.3514 15.8188L11.93 17.5951ZM4.66789 5.99539C4.66789 5.38739 5.16077 4.89452 5.76876 4.89452H14.5758C15.1838 4.89452 15.6767 5.38739 15.6767 5.99539C15.6767 6.60339 15.1838 7.09627 14.5758 7.09627H5.76876C5.16077 7.09627 4.66789 6.60339 4.66789 5.99539Z" fill="#C4C4C4"/>
</svg>
