<svg width="23" height="24" viewBox="0 0 23 24" fill="none" xmlns="http://www.w3.org/2000/svg">
<path fill-rule="evenodd" clip-rule="evenodd" d="M20.5577 10.9624V19.2782C20.5577 20.3827 19.6622 21.2782 18.5577 21.2782H15.2554C15.5956 20.6899 15.7904 20.0069 15.7904 19.2784V16.5803C15.7904 15.4131 15.2805 14.3041 14.3946 13.5442L13.883 13.1054C12.3847 11.8203 10.1729 11.8203 8.67461 13.1054L8.16308 13.5442C7.27713 14.3041 6.7673 15.4131 6.7673 16.5803V19.2784C6.7673 20.0069 6.96204 20.6899 7.3023 21.2782H4C2.89543 21.2782 2 20.3827 2 19.2782V10.9624C2 10.4165 2.2231 9.89437 2.61755 9.51707L9.89638 2.55472C10.6696 1.81509 11.888 1.81509 12.6613 2.55472L19.9401 9.51707C20.3346 9.89437 20.5577 10.4165 20.5577 10.9624ZM10.7378 21.2782C9.64681 21.2624 8.7673 20.3731 8.7673 19.2784V16.5803C8.7673 15.9967 9.02221 15.4422 9.46519 15.0623L9.97672 14.6235C10.7259 13.9809 11.8318 13.9809 12.5809 14.6235L13.0925 15.0623C13.5354 15.4422 13.7904 15.9967 13.7904 16.5803V19.2784C13.7904 20.3731 12.9108 21.2624 11.8199 21.2782H10.7378ZM10.7255 23.2782H4C1.79086 23.2782 0 21.4873 0 19.2782V10.9624C0 9.87066 0.446203 8.82639 1.23511 8.07179L8.51394 1.10943C10.0604 -0.36981 12.4972 -0.369812 14.0437 1.10943L21.3225 8.07179C22.1115 8.82639 22.5577 9.87066 22.5577 10.9624V19.2782C22.5577 21.4873 20.7668 23.2782 18.5577 23.2782H11.8321C11.8182 23.2783 11.8043 23.2784 11.7904 23.2784H10.7673C10.7534 23.2784 10.7394 23.2783 10.7255 23.2782Z" fill="#C4C4C4"/>
</svg>
