<svg width="23" height="23" viewBox="0 0 23 23" fill="none" xmlns="http://www.w3.org/2000/svg">
<path fill-rule="evenodd" clip-rule="evenodd" d="M15.3379 8.5C15.3379 9.56087 14.9165 10.5783 14.1663 11.3284C13.4162 12.0786 12.3988 12.5 11.3379 12.5C10.277 12.5 9.25961 12.0786 8.50946 11.3284C7.75932 10.5783 7.33789 9.56087 7.33789 8.5C7.33789 7.43913 7.75932 6.42172 8.50946 5.67157C9.25961 4.92143 10.277 4.5 11.3379 4.5C12.3988 4.5 13.4162 4.92143 14.1663 5.67157C14.9165 6.42172 15.3379 7.43913 15.3379 8.5ZM13.3379 8.5C13.3379 9.03043 13.1272 9.53914 12.7521 9.91421C12.377 10.2893 11.8683 10.5 11.3379 10.5C10.8075 10.5 10.2988 10.2893 9.92368 9.91421C9.5486 9.53914 9.33789 9.03043 9.33789 8.5C9.33789 7.96957 9.5486 7.46086 9.92368 7.08579C10.2988 6.71071 10.8075 6.5 11.3379 6.5C11.8683 6.5 12.377 6.71071 12.7521 7.08579C13.1272 7.46086 13.3379 7.96957 13.3379 8.5Z" fill="#C4C4C4"/>
<path fill-rule="evenodd" clip-rule="evenodd" d="M11.3379 0.5C5.26289 0.5 0.337891 5.425 0.337891 11.5C0.337891 17.575 5.26289 22.5 11.3379 22.5C17.4129 22.5 22.3379 17.575 22.3379 11.5C22.3379 5.425 17.4129 0.5 11.3379 0.5ZM2.33789 11.5C2.33789 13.59 3.05089 15.514 4.24589 17.042C5.08533 15.9401 6.16804 15.0471 7.40953 14.4327C8.65101 13.8183 10.0177 13.4991 11.4029 13.5C12.7703 13.4984 14.12 13.8091 15.349 14.4084C16.5781 15.0077 17.6541 15.8797 18.4949 16.958C19.3613 15.8216 19.9447 14.4952 20.1968 13.0886C20.4488 11.682 20.3623 10.2355 19.9444 8.86898C19.5264 7.50243 18.7891 6.25505 17.7934 5.23004C16.7976 4.20503 15.5721 3.43186 14.2183 2.97451C12.8644 2.51716 11.4211 2.38877 10.0078 2.59997C8.59441 2.81117 7.25168 3.35589 6.09066 4.18905C4.92964 5.02222 3.9837 6.11987 3.33112 7.3912C2.67854 8.66252 2.33807 10.071 2.33789 11.5ZM11.3379 20.5C9.2718 20.5033 7.26803 19.7926 5.66589 18.488C6.3107 17.5646 7.16908 16.8107 8.16797 16.2905C9.16685 15.7702 10.2766 15.499 11.4029 15.5C12.5151 15.499 13.6114 15.7635 14.6009 16.2713C15.5903 16.7792 16.4443 17.5158 17.0919 18.42C15.4774 19.767 13.4405 20.5033 11.3379 20.5Z" fill="#C4C4C4"/>
</svg>
