<svg width="21" height="21" viewBox="0 0 21 21" fill="none" xmlns="http://www.w3.org/2000/svg">
<path d="M17.6621 2.5H15.6621V1.5C15.6621 1.23478 15.5568 0.98043 15.3692 0.792893C15.1817 0.605357 14.9273 0.5 14.6621 0.5C14.3969 0.5 14.1425 0.605357 13.955 0.792893C13.7675 0.98043 13.6621 1.23478 13.6621 1.5V2.5H7.66211V1.5C7.66211 1.23478 7.55675 0.98043 7.36922 0.792893C7.18168 0.605357 6.92733 0.5 6.66211 0.5C6.39689 0.5 6.14254 0.605357 5.955 0.792893C5.76747 0.98043 5.66211 1.23478 5.66211 1.5V2.5H3.66211C2.86646 2.5 2.1034 2.81607 1.54079 3.37868C0.97818 3.94129 0.662109 4.70435 0.662109 5.5V17.5C0.662109 18.2956 0.97818 19.0587 1.54079 19.6213C2.1034 20.1839 2.86646 20.5 3.66211 20.5H17.6621C18.4578 20.5 19.2208 20.1839 19.7834 19.6213C20.346 19.0587 20.6621 18.2956 20.6621 17.5V5.5C20.6621 4.70435 20.346 3.94129 19.7834 3.37868C19.2208 2.81607 18.4578 2.5 17.6621 2.5ZM18.6621 17.5C18.6621 17.7652 18.5568 18.0196 18.3692 18.2071C18.1817 18.3946 17.9273 18.5 17.6621 18.5H3.66211C3.39689 18.5 3.14254 18.3946 2.955 18.2071C2.76747 18.0196 2.66211 17.7652 2.66211 17.5V10.5H18.6621V17.5ZM18.6621 8.5H2.66211V5.5C2.66211 5.23478 2.76747 4.98043 2.955 4.79289C3.14254 4.60536 3.39689 4.5 3.66211 4.5H5.66211V5.5C5.66211 5.76522 5.76747 6.01957 5.955 6.20711C6.14254 6.39464 6.39689 6.5 6.66211 6.5C6.92733 6.5 7.18168 6.39464 7.36922 6.20711C7.55675 6.01957 7.66211 5.76522 7.66211 5.5V4.5H13.6621V5.5C13.6621 5.76522 13.7675 6.01957 13.955 6.20711C14.1425 6.39464 14.3969 6.5 14.6621 6.5C14.9273 6.5 15.1817 6.39464 15.3692 6.20711C15.5568 6.01957 15.6621 5.76522 15.6621 5.5V4.5H17.6621C17.9273 4.5 18.1817 4.60536 18.3692 4.79289C18.5568 4.98043 18.6621 5.23478 18.6621 5.5V8.5Z" fill="#C4C4C4"/>
</svg>
