<svg width="23" height="17" viewBox="0 0 23 17" fill="none" xmlns="http://www.w3.org/2000/svg">
<path fill-rule="evenodd" clip-rule="evenodd" d="M22.9609 3.85333C22.9609 4.09383 22.8746 4.32448 22.7209 4.49454C22.5672 4.6646 22.3588 4.76014 22.1414 4.76014H16.6781C16.4608 4.76014 16.2523 4.6646 16.0987 4.49454C15.945 4.32448 15.8586 4.09383 15.8586 3.85333C15.8586 3.61283 15.945 3.38218 16.0987 3.21212C16.2523 3.04206 16.4608 2.94652 16.6781 2.94652H22.1414C22.3588 2.94652 22.5672 3.04206 22.7209 3.21212C22.8746 3.38218 22.9609 3.61283 22.9609 3.85333ZM22.9609 9.29419C22.9609 9.53469 22.8746 9.76534 22.7209 9.9354C22.5672 10.1055 22.3588 10.201 22.1414 10.201H17.7708C17.5534 10.201 17.345 10.1055 17.1913 9.9354C17.0376 9.76534 16.9513 9.53469 16.9513 9.29419C16.9513 9.05369 17.0376 8.82304 17.1913 8.65298C17.345 8.48292 17.5534 8.38738 17.7708 8.38738H22.1414C22.3588 8.38738 22.5672 8.48292 22.7209 8.65298C22.8746 8.82304 22.9609 9.05369 22.9609 9.29419ZM13.1379 2.99731L13.6154 3.52446C14.4185 4.41435 15.0741 5.13979 15.5221 5.76972C15.981 6.41537 16.3241 7.09729 16.3241 7.90254C16.3241 8.35352 16.2411 8.79847 16.0804 9.21197C15.7931 9.95193 15.2336 10.4283 14.5813 10.82C13.9443 11.2033 13.0833 11.5818 12.0267 12.0473L11.8191 12.1391C11.1492 12.4342 10.9733 12.5212 10.8389 12.6397C10.7204 12.7447 10.6178 12.87 10.5352 13.0109C10.4423 13.1717 10.3822 13.3736 10.1855 14.1402L10.1746 14.1825C10.0424 14.7 9.92656 15.1498 9.80309 15.4992C9.67743 15.8534 9.49605 16.2512 9.15405 16.5293C8.76041 16.8485 8.27139 16.9891 7.78712 16.9223C7.36536 16.8642 7.03209 16.6152 6.76548 16.3733C6.45185 16.0713 6.15035 15.7543 5.86185 15.423L4.70363 14.1414L2.3391 16.7566C2.18376 16.9168 1.97828 17.004 1.76598 16.9999C1.55367 16.9957 1.35111 16.9005 1.20096 16.7344C1.05082 16.5683 0.964811 16.3441 0.961065 16.1092C0.957319 15.8743 1.03613 15.6469 1.18088 15.475L3.54431 12.8586L2.38609 11.5769C2.0867 11.2573 1.80015 10.9233 1.52726 10.5758C1.30872 10.282 1.08363 9.91324 1.03119 9.44653C0.971079 8.91107 1.09811 8.37044 1.3863 7.93518C1.63762 7.55553 1.9971 7.35483 2.31725 7.21578C2.63194 7.07916 3.0395 6.94978 3.50825 6.80469L3.54541 6.7926C4.23815 6.57497 4.41954 6.50726 4.56595 6.4057C4.69328 6.31421 4.80654 6.20073 4.9014 6.06957C5.00848 5.92086 5.08715 5.7262 5.35376 4.98624L5.43681 4.7541C5.85639 3.58613 6.19948 2.63337 6.54586 1.92848C6.89988 1.20666 7.33039 0.587612 7.9991 0.269624C8.37299 0.0920216 8.77557 0.000293407 9.18246 0C9.91017 0 10.5264 0.37965 11.1099 0.887463C11.6792 1.38319 12.3337 2.10863 13.1379 2.99731ZM6.99385 14.1099L5.29257 12.2286L5.28383 12.2165L5.274 12.2069L3.57381 10.3255C3.19357 9.90477 2.95209 9.63636 2.79365 9.42356C2.74112 9.35715 2.69532 9.28458 2.65707 9.20713C2.65268 9.14105 2.66804 9.07521 2.70078 9.01973C2.76847 8.97243 2.84065 8.9335 2.91603 8.90365C3.14768 8.8033 3.47766 8.69811 3.9934 8.5373L4.08955 8.50708C4.64025 8.33418 5.07404 8.19876 5.44773 7.93397C5.72905 7.73448 5.97894 7.48533 6.18747 7.19644C6.46282 6.81195 6.6289 6.34766 6.84088 5.75884L6.94031 5.48075C7.38502 4.24387 7.69315 3.39267 7.98708 2.79418C8.27773 2.20173 8.48315 2.01432 8.64705 1.93573C8.81737 1.85675 8.99997 1.81527 9.18464 1.81362C9.36384 1.81362 9.61843 1.89583 10.097 2.31297C10.5811 2.73373 11.1678 3.38058 12.019 4.32246L12.4189 4.76498C13.2701 5.70685 13.8547 6.35613 14.2349 6.89054C14.6119 7.42132 14.6862 7.70304 14.6862 7.90133C14.6862 8.10566 14.648 8.30879 14.5747 8.4962C14.5048 8.67756 14.3355 8.90486 13.8 9.22648C13.2592 9.55172 12.4899 9.89147 11.3722 10.3848L11.1208 10.4948C10.5876 10.7294 10.1702 10.9131 9.82166 11.2178C9.56058 11.4486 9.33543 11.7251 9.15514 12.0364C8.91584 12.4499 8.79347 12.9299 8.63722 13.5393L8.6099 13.6457C8.46348 14.2163 8.36951 14.5815 8.27882 14.8378C8.25185 14.9212 8.21667 15.0011 8.17393 15.076C8.12379 15.1122 8.06428 15.1292 8.00456 15.1244C7.9342 15.0821 7.86824 15.0314 7.80788 14.9732C7.52548 14.6985 7.25388 14.4105 6.99385 14.1099Z" fill="#C4C4C4"/>
<path d="M22.7207 15.1458C22.8744 14.9757 22.9607 14.745 22.9607 14.5045C22.9607 14.264 22.8744 14.0334 22.7207 13.8633C22.567 13.6933 22.3586 13.5977 22.1412 13.5977H11.6884C11.471 13.5977 11.2626 13.6933 11.1089 13.8633C10.9552 14.0334 10.8689 14.264 10.8689 14.5045C10.8689 14.745 10.9552 14.9757 11.1089 15.1458C11.2626 15.3158 11.471 15.4114 11.6884 15.4114H22.1412C22.3586 15.4114 22.567 15.3158 22.7207 15.1458Z" fill="#C4C4C4"/>
</svg>
