<svg width="21" height="17" viewBox="0 0 21 17" fill="none" xmlns="http://www.w3.org/2000/svg">
<path d="M17.1409 0.891604C17.7939 1.37512 18.2439 2.15612 18.4279 2.97395L18.4929 2.9985L20.5379 3.89188C20.6521 3.94154 20.7489 4.02099 20.817 4.12087C20.885 4.22075 20.9214 4.33691 20.9219 4.45567V16.1347C20.9211 16.2318 20.8966 16.3273 20.8502 16.4139C20.8038 16.5004 20.7368 16.5756 20.6545 16.6337C20.5721 16.6917 20.4767 16.7309 20.3756 16.7482C20.2745 16.7655 20.1706 16.7605 20.0719 16.7335L14.4029 15.2225L7.66288 16.9771C7.5413 17.0089 7.4127 17.0076 7.29188 16.9733L1.39588 15.316C1.2596 15.2782 1.13986 15.1999 1.05447 15.0927C0.969076 14.9855 0.922575 14.8551 0.921875 14.721L0.921875 2.83229C0.921875 2.41677 1.34988 2.11835 1.77688 2.23545L7.47888 3.80405L10.3769 2.96639C10.4169 2.95506 10.4575 2.94719 10.4989 2.94278C10.6109 2.32327 10.9239 1.72832 11.4489 1.14847C12.0719 0.459081 13.1649 0.0548897 14.2299 0.00672669C15.3349 -0.0433251 16.1789 0.179547 17.1399 0.89066M2.25487 3.66617V14.2573L7.12488 15.6257V5.00435L2.25487 3.66617ZM10.4639 4.24602L8.45788 4.82492V15.4765L13.5229 14.16V11.0483C13.5229 10.7046 13.8219 10.426 14.1899 10.426C14.5579 10.426 14.8559 10.7046 14.8559 11.0493V14.0496L19.5889 15.3103V4.85136L18.4689 4.36029C18.4502 4.46417 18.4259 4.56585 18.3959 4.66532C18.1792 5.38973 17.8144 6.06702 17.3219 6.65889L14.8449 9.57984C14.7797 9.65664 14.6964 9.71801 14.6016 9.75907C14.5069 9.80012 14.4033 9.81974 14.2991 9.81634C14.1949 9.81295 14.093 9.78665 14.0015 9.73952C13.91 9.6924 13.8313 9.62576 13.7719 9.5449L11.4569 6.37841C11.0742 5.87538 10.8072 5.42334 10.6559 5.02229C10.5607 4.7713 10.4963 4.51085 10.4639 4.24602ZM14.2939 1.25141C13.5679 1.28446 12.8219 1.56022 12.4669 1.95214C12.0399 2.42432 11.8299 2.86629 11.7879 3.31392C11.7379 3.85316 11.7719 4.23374 11.9139 4.61055C12.0189 4.88914 12.2279 5.24233 12.5509 5.66824L14.3619 8.14439L16.2719 5.89206C16.6575 5.42716 16.9431 4.8956 17.1129 4.32723C17.3529 3.53396 16.9909 2.3686 16.3129 1.86809C15.6179 1.3534 15.0929 1.21458 14.2949 1.25141M14.4329 1.90964C15.5369 1.90964 16.4329 2.74541 16.4329 3.77667C16.4294 4.2746 16.2169 4.75089 15.8419 5.10094C15.4669 5.451 14.9601 5.6462 14.4329 5.64369C13.3289 5.64369 12.4329 4.80792 12.4329 3.77667C12.4329 2.74541 13.3289 1.90964 14.4329 1.90964ZM14.4329 3.15432C14.3458 3.15383 14.2595 3.16953 14.1788 3.20053C14.0982 3.23154 14.0248 3.27724 13.9629 3.33503C13.901 3.39282 13.8517 3.46157 13.8179 3.53735C13.7841 3.61312 13.7664 3.69444 13.7659 3.77667C13.7659 4.12042 14.0649 4.39901 14.4329 4.39901C14.5199 4.39938 14.6062 4.38355 14.6868 4.35243C14.7674 4.32131 14.8407 4.2755 14.9026 4.21763C14.9644 4.15975 15.0136 4.09093 15.0473 4.01511C15.0809 3.93929 15.0985 3.85794 15.0989 3.77572C15.0976 3.60999 15.0267 3.45152 14.9019 3.33504C14.777 3.21855 14.6084 3.15357 14.4329 3.15432Z" fill="#04ACB5"/>
</svg>
