<svg width="14" height="19" viewBox="0 0 14 19" fill="none" xmlns="http://www.w3.org/2000/svg">
<path d="M9.48745 15.1764L6.93781 13.6761L4.38817 15.1764L5.0646 12.2799L2.81849 10.3373L5.77573 10.0858L6.93781 7.37141L8.09989 10.0858L11.0571 10.3373L8.81101 12.2799M13.8756 0H1.02598e-05V1.73445L4.21472 4.89115C2.74426 5.51866 1.53565 6.63477 0.793292 8.05072C0.0509291 9.46667 -0.179625 11.0956 0.140621 12.6619C0.460867 14.2283 1.31226 15.6359 2.55081 16.6469C3.78936 17.6578 5.33905 18.21 6.93781 18.21C8.53656 18.21 10.0863 17.6578 11.3248 16.6469C12.5634 15.6359 13.4147 14.2283 13.735 12.6619C14.0552 11.0956 13.8247 9.46667 13.0823 8.05072C12.34 6.63477 11.1314 5.51866 9.6609 4.89115L13.8756 1.73445M12.1412 11.2739C12.1416 12.2593 11.8623 13.2246 11.3356 14.0575C10.8089 14.8903 10.0566 15.5565 9.16608 15.9785C8.2756 16.4004 7.2836 16.5609 6.3055 16.4412C5.32739 16.3214 4.4034 15.9264 3.64102 15.302C2.87864 14.6777 2.30922 13.8497 1.99901 12.9144C1.68881 11.9791 1.65056 10.9749 1.88873 10.0187C2.1269 9.06255 2.63169 8.19364 3.34437 7.51312C4.05705 6.8326 4.94832 6.36844 5.91448 6.17464C6.58974 6.0368 7.28588 6.0368 7.96113 6.17464C9.13963 6.41103 10.1999 7.04812 10.9619 7.97769C11.7239 8.90725 12.1406 10.072 12.1412 11.2739ZM7.48416 4.33612H6.39146L2.92256 1.73445H11.0224L7.48416 4.33612Z" fill="#04ACB5"/>
</svg>
