<svg width="19" height="19" viewBox="0 0 19 19" fill="none" xmlns="http://www.w3.org/2000/svg">
<path d="M8.78175 14.398C9.56968 14.398 10.3499 14.2428 11.0779 13.9412C11.8058 13.6397 12.4672 13.1978 13.0244 12.6406C13.5815 12.0835 14.0235 11.422 14.325 10.6941C14.6266 9.96611 14.7818 9.1859 14.7818 8.39796C14.7818 7.61003 14.6266 6.82982 14.325 6.10186C14.0235 5.37391 13.5815 4.71248 13.0244 4.15532C12.4672 3.59817 11.8058 3.15622 11.0779 2.85469C10.3499 2.55316 9.56968 2.39796 8.78175 2.39796C7.19045 2.39796 5.66433 3.03011 4.53911 4.15532C3.41389 5.28054 2.78175 6.80667 2.78175 8.39796C2.78175 9.98926 3.41389 11.5154 4.53911 12.6406C5.66433 13.7658 7.19045 14.398 8.78175 14.398ZM15.1018 13.304L18.6818 16.884C18.7772 16.9763 18.8533 17.0867 18.9056 17.2087C18.9579 17.3308 18.9854 17.462 18.9865 17.5948C18.9875 17.7276 18.9622 17.8592 18.9118 17.9821C18.8614 18.1049 18.7871 18.2165 18.6931 18.3104C18.5992 18.4042 18.4875 18.4784 18.3645 18.5286C18.2416 18.5787 18.1099 18.604 17.9771 18.6027C17.8444 18.6015 17.7132 18.5738 17.5912 18.5213C17.4692 18.4688 17.3589 18.3925 17.2668 18.297L13.6868 14.717C12.0792 15.9648 10.0565 16.5531 8.03051 16.3622C6.00447 16.1712 4.12736 15.2153 2.7813 13.689C1.43525 12.1628 0.721438 10.1809 0.785179 8.14689C0.84892 6.11287 1.68542 4.17959 3.1244 2.74061C4.56338 1.30163 6.49665 0.465131 8.53068 0.40139C10.5647 0.337649 12.5466 1.05146 14.0728 2.39752C15.5991 3.74357 16.555 5.62068 16.7459 7.64672C16.9369 9.67276 16.3486 11.6954 15.1008 13.303L15.1018 13.304Z" fill="#04ACB5"/>
</svg>
