<svg width="56" height="56" viewBox="0 0 56 56" fill="none" xmlns="http://www.w3.org/2000/svg">
<path d="M12.25 26.25H47.25C47.7141 26.25 48.1592 26.4344 48.4874 26.7626C48.8156 27.0908 49 27.5359 49 28C49 28.4641 48.8156 28.9092 48.4874 29.2374C48.1592 29.5656 47.7141 29.75 47.25 29.75H12.25C11.7859 29.75 11.3408 29.5656 11.0126 29.2374C10.6844 28.9092 10.5 28.4641 10.5 28C10.5 27.5359 10.6844 27.0908 11.0126 26.7626C11.3408 26.4344 11.7859 26.25 12.25 26.25Z" fill="white"/>
<path d="M12.9737 28.0003L27.4882 42.5113C27.8168 42.8399 28.0014 43.2855 28.0014 43.7503C28.0014 44.215 27.8168 44.6607 27.4882 44.9893C27.1596 45.3179 26.7139 45.5025 26.2492 45.5025C25.7845 45.5025 25.3388 45.3179 25.0102 44.9893L9.26022 29.2393C9.09725 29.0767 8.96795 28.8836 8.87973 28.671C8.79151 28.4584 8.74609 28.2304 8.74609 28.0003C8.74609 27.7701 8.79151 27.5421 8.87973 27.3295C8.96795 27.1169 9.09725 26.9238 9.26022 26.7613L25.0102 11.0113C25.3388 10.6827 25.7845 10.498 26.2492 10.498C26.7139 10.498 27.1596 10.6827 27.4882 11.0113C27.8168 11.3399 28.0014 11.7855 28.0014 12.2503C28.0014 12.715 27.8168 13.1607 27.4882 13.4893L12.9737 28.0003Z" fill="white"/>
</svg>
