<svg width="23" height="23" viewBox="0 0 23 23" fill="none" xmlns="http://www.w3.org/2000/svg">
<path d="M19.2999 12.7955L19.3044 12.7978C19.374 12.3732 19.4077 11.9397 19.4077 11.5107C19.4077 11.1267 19.3785 10.7403 19.3246 10.363C19.3785 10.7381 19.4055 11.1177 19.4055 11.4973C19.4055 11.933 19.3695 12.3688 19.2999 12.7955ZM2.22285 8.94121C2.21162 8.93223 2.20264 8.92324 2.19141 8.91201C2.20713 8.92773 2.22285 8.94346 2.24082 8.95918L3.71201 10.2147V10.2125L2.22285 8.94121ZM14.2754 4.08965H14.2776L13.9295 2.20742C13.925 2.18496 13.9205 2.16475 13.9138 2.14453C13.916 2.15576 13.9205 2.16924 13.9228 2.18047L14.2754 4.08965ZM15.4883 16.3646L16.1936 15.7851L18.2779 16.524C18.6598 16.0097 18.981 15.4571 19.2348 14.8709L17.5569 13.4356L17.7052 12.535C17.7613 12.1958 17.7905 11.8477 17.7905 11.4995C17.7905 11.1514 17.7613 10.8032 17.7052 10.4641L17.5592 9.56787L19.237 8.13262C18.981 7.54863 18.662 6.99385 18.2802 6.47949L16.1958 7.21846L15.4905 6.63896C14.9537 6.19873 14.354 5.85283 13.7094 5.61025L12.8536 5.28906L12.4516 3.11035C11.8172 3.03848 11.1767 3.03848 10.5424 3.11035L10.1403 5.29355L9.28906 5.61475C8.64893 5.85732 8.05371 6.20322 7.52139 6.64121L6.81611 7.22295L4.71826 6.47725C4.33643 6.9916 4.01523 7.54414 3.76143 8.13037L5.45723 9.5791L5.31123 10.4775C5.25508 10.8122 5.22813 11.1559 5.22813 11.4995C5.22813 11.8409 5.25732 12.1868 5.31123 12.5215L5.45723 13.4199L3.76143 14.8687C4.01748 15.4526 4.33643 16.0074 4.71826 16.5218L6.81611 15.7761L7.52139 16.3578C8.05371 16.7958 8.64893 17.1417 9.28906 17.3843L10.1381 17.71L10.5401 19.8932C11.1735 19.965 11.8182 19.965 12.4493 19.8932L12.8514 17.7145L13.7071 17.3933C14.354 17.1507 14.9515 16.8048 15.4883 16.3646ZM11.5104 15.2348C10.8254 15.2348 10.1808 15.0596 9.61699 14.7519C8.38389 14.0825 7.54609 12.7775 7.54609 11.2749C7.54609 9.0917 9.31602 7.32178 11.4992 7.32178C13.0019 7.32178 14.3068 8.15957 14.9762 9.39268C15.2839 9.9542 15.4591 10.5988 15.4591 11.2861C15.4591 13.4671 13.6914 15.2348 11.5104 15.2348ZM4.65312 18.2558C4.52959 18.2984 4.40156 18.3074 4.28027 18.2827C4.4083 18.3097 4.54307 18.3052 4.67334 18.2603L6.50166 17.6089C6.49941 17.6066 6.49492 17.6044 6.49268 17.6021L4.65312 18.2558ZM20.7711 8.94121L19.2999 10.199C19.2999 10.2035 19.3021 10.2103 19.3021 10.2147L20.7711 8.95918C20.9306 8.82217 21.0204 8.62451 21.0227 8.42012C21.0159 8.61777 20.9261 8.80869 20.7711 8.94121Z" fill="#3D3C3C" fill-opacity="0.15"/>
<path d="M21.0184 14.5234C21.0296 14.629 21.0184 14.7368 20.9802 14.8401L20.96 14.8985C20.5539 16.03 19.9475 17.0792 19.1698 17.9959L19.1294 18.0431C19.0352 18.1544 18.9093 18.2345 18.7685 18.2726C18.6276 18.3107 18.4786 18.3051 18.341 18.2564L16.5149 17.6073C15.845 18.1592 15.0883 18.5964 14.2756 18.9011L13.9229 20.8103C13.8963 20.9539 13.8267 21.0861 13.7232 21.1892C13.6196 21.2923 13.4872 21.3615 13.3435 21.3875L13.2828 21.3987C12.6958 21.5048 12.1004 21.5582 11.5039 21.5582H11.5106C12.1104 21.5582 12.7101 21.5043 13.294 21.3987L13.3547 21.3875C13.4984 21.3615 13.6309 21.2923 13.7344 21.1892C13.8379 21.0861 13.9076 20.9539 13.9342 20.8103L14.2868 18.9033C15.0999 18.5979 15.8501 18.1644 16.5239 17.6118L18.3478 18.2609C18.4853 18.3096 18.6344 18.3152 18.7752 18.2771C18.916 18.239 19.0419 18.1589 19.1361 18.0476L19.1766 18.0004C19.9582 17.0772 20.5579 16.0373 20.9645 14.9075L20.9847 14.8491C21.0206 14.7436 21.0318 14.6313 21.0184 14.5234Z" fill="#3D3C3C" fill-opacity="0.15"/>
<path d="M15.4531 11.2754C15.4531 10.5948 15.2802 9.95244 14.977 9.39316C14.3076 8.16006 13.0026 7.32227 11.5 7.32227C9.3168 7.32227 7.54688 9.09219 7.54688 11.2754C7.54688 12.778 8.38467 14.083 9.61777 14.7523C10.1771 15.0556 10.8172 15.2285 11.5 15.2285C13.6832 15.2285 15.4531 13.4586 15.4531 11.2754ZM8.98438 11.2754C8.98438 10.6038 9.24717 9.97266 9.72109 9.49648C10.1973 9.02031 10.8284 8.75977 11.5 8.75977C12.1716 8.75977 12.8027 9.02031 13.2789 9.49648C13.5129 9.7298 13.6984 10.0071 13.8249 10.3124C13.9513 10.6177 14.0161 10.945 14.0156 11.2754C14.0156 11.947 13.7528 12.5781 13.2789 13.0543C13.0456 13.2883 12.7683 13.4738 12.463 13.6003C12.1577 13.7267 11.8304 13.7915 11.5 13.791C10.8284 13.791 10.1973 13.5282 9.72109 13.0543C9.4871 12.821 9.30155 12.5437 9.17512 12.2384C9.04868 11.9331 8.98386 11.6058 8.98438 11.2754Z" fill="#3D3C3C"/>
<path d="M13.3446 21.3868C13.4884 21.3607 13.6208 21.2915 13.7243 21.1884C13.8278 21.0853 13.8975 20.9532 13.9241 20.8095L14.2768 18.9003C15.0895 18.5957 15.8462 18.1585 16.5161 17.6066L18.3422 18.2557C18.4797 18.3044 18.6288 18.31 18.7696 18.2719C18.9105 18.2338 19.0363 18.1537 19.1306 18.0423L19.171 17.9952C19.9526 17.072 20.5546 16.0298 20.9611 14.8978L20.9814 14.8394C21.0195 14.7361 21.0308 14.6283 21.0195 14.5227C20.9993 14.3453 20.914 14.1768 20.7725 14.0533L19.3058 12.7977L19.3013 12.7955C19.3709 12.3687 19.4068 11.933 19.4068 11.4972C19.4068 11.1176 19.3799 10.7358 19.326 10.3629C19.3192 10.3135 19.3103 10.2641 19.3035 10.2147C19.3035 10.2102 19.3013 10.2035 19.3013 10.199L20.7725 8.94116C20.9274 8.80864 21.0173 8.61772 21.024 8.42007C21.0263 8.33022 21.0128 8.23813 20.9814 8.15054L20.9611 8.09214C20.5561 6.96017 19.9496 5.91081 19.171 4.99478L19.1306 4.94761C19.0361 4.83654 18.9102 4.7567 18.7695 4.71861C18.6287 4.68052 18.4798 4.68597 18.3422 4.73423L16.5161 5.38335C15.8423 4.83081 15.0921 4.39507 14.279 4.0896H14.2768L13.9241 2.18042C13.9219 2.16919 13.9196 2.15571 13.9151 2.14448C13.8827 2.00868 13.8115 1.88523 13.7102 1.78913C13.609 1.69303 13.4819 1.62843 13.3446 1.60317L13.284 1.59194C12.1138 1.38081 10.8829 1.38081 9.7127 1.59194L9.65206 1.60317C9.5083 1.62922 9.37587 1.69839 9.27236 1.8015C9.16885 1.90461 9.09917 2.03676 9.07256 2.18042L8.71768 4.09858C7.91108 4.40412 7.15994 4.83963 6.49405 5.38784L4.6545 4.73423C4.51696 4.68558 4.36787 4.67994 4.22705 4.71806C4.08623 4.75617 3.96035 4.83623 3.86612 4.94761L3.82569 4.99478C3.04797 5.91146 2.44159 6.96064 2.03555 8.09214L2.01534 8.15054C1.96853 8.28107 1.96037 8.42234 1.99185 8.5574C2.02332 8.69245 2.09309 8.81556 2.19278 8.91196C2.20401 8.92095 2.21299 8.93218 2.22422 8.94116L3.71338 10.2125V10.2147C3.64375 10.637 3.61006 11.066 3.61006 11.495C3.61006 11.9262 3.64375 12.3575 3.71338 12.7775L2.22422 14.0488C2.11326 14.1438 2.03384 14.2703 1.99652 14.4115C1.95921 14.5528 1.96577 14.702 2.01534 14.8394L2.03555 14.8978C2.44209 16.0298 3.04405 17.0743 3.82569 17.9952L3.86612 18.0423C3.97618 18.1704 4.12217 18.2535 4.28165 18.2827C4.40293 18.3051 4.53096 18.2984 4.6545 18.2557L6.49405 17.6021C6.49629 17.6043 6.50079 17.6066 6.50303 17.6088C7.17012 18.1546 7.91358 18.5881 8.71768 18.8914L9.07256 20.8095C9.09917 20.9532 9.16885 21.0853 9.27236 21.1884C9.37587 21.2915 9.5083 21.3607 9.65206 21.3868L9.7127 21.398C10.2989 21.5036 10.8986 21.5575 11.4983 21.5575H11.5051C12.1025 21.5575 12.7023 21.5036 13.284 21.398L13.3446 21.3868ZM12.4507 19.8931C11.8163 19.965 11.1759 19.965 10.5415 19.8931L10.1395 17.7099L9.29043 17.3842C8.6503 17.1417 8.05508 16.7958 7.52276 16.3578L6.81749 15.776L4.71963 16.5217C4.3378 16.0074 4.01885 15.4526 3.7628 14.8686L5.4586 13.4199L5.3126 12.5214C5.2587 12.1868 5.2295 11.8409 5.2295 11.4995C5.2295 11.1558 5.25645 10.8122 5.3126 10.4775L5.4586 9.57905L3.7628 8.13032C4.01661 7.54409 4.3378 6.99155 4.71963 6.4772L6.81749 7.2229L7.52276 6.64116C8.05508 6.20317 8.6503 5.85728 9.29043 5.6147L10.1417 5.29351L10.5438 3.1103C11.1749 3.03843 11.8195 3.03843 12.4529 3.1103L12.855 5.28901L13.7107 5.61021C14.3554 5.85278 14.9551 6.19868 15.4919 6.63892L16.1972 7.21841L18.2815 6.47944C18.6634 6.9938 18.9823 7.54858 19.2384 8.13257L17.5606 9.56782L17.7065 10.464C17.7627 10.8032 17.7919 11.1513 17.7919 11.4995C17.7919 11.8476 17.7627 12.1958 17.7065 12.5349L17.5583 13.4356L19.2361 14.8708C18.9818 15.4568 18.6607 16.0115 18.2793 16.524L16.1949 15.785L15.4897 16.3645C14.9528 16.8047 14.3554 17.1506 13.7085 17.3932L12.8527 17.7144L12.4507 19.8931Z" fill="#3D3C3C"/>
</svg>
