<svg width="45" height="45" viewBox="0 0 45 45" fill="none" xmlns="http://www.w3.org/2000/svg">
<path d="M28.8005 31.6246C27.9617 31.6246 26.7835 31.3212 25.0192 30.3355C22.8738 29.1324 21.2143 28.0217 19.0805 25.8934C17.0232 23.8374 16.022 22.5062 14.6208 19.9564C13.0378 17.0775 13.3077 15.5685 13.6093 14.9235C13.9685 14.1526 14.4987 13.6916 15.1841 13.234C15.5734 12.9789 15.9853 12.7603 16.4147 12.5809C16.4577 12.5624 16.4977 12.5448 16.5333 12.5289C16.746 12.433 17.0683 12.2882 17.4765 12.4429C17.7489 12.5452 17.9921 12.7544 18.3728 13.1304C19.1536 13.9004 20.2205 15.6153 20.6141 16.4575C20.8783 17.0251 21.0532 17.3998 21.0536 17.82C21.0536 18.312 20.8061 18.6914 20.5058 19.1009C20.4495 19.1778 20.3936 19.2513 20.3395 19.3226C20.0125 19.7523 19.9407 19.8765 19.988 20.0982C20.0838 20.5438 20.7984 21.8703 21.9727 23.042C23.1471 24.2138 24.4353 24.8832 24.8826 24.9786C25.1137 25.028 25.2405 24.9533 25.6839 24.6147C25.7475 24.5661 25.8128 24.5159 25.8812 24.4656C26.3392 24.1248 26.701 23.8838 27.1814 23.8838H27.184C27.6021 23.8838 27.96 24.0651 28.553 24.3642C29.3264 24.7543 31.0928 25.8075 31.8676 26.5891C32.2444 26.9689 32.4545 27.2113 32.5572 27.4833C32.7119 27.8928 32.5662 28.2137 32.4713 28.4286C32.4554 28.4642 32.4378 28.5034 32.4193 28.5467C32.2384 28.9754 32.0185 29.3865 31.7623 29.7748C31.3055 30.458 30.8428 30.9869 30.0702 31.3466C29.6735 31.5343 29.2393 31.6293 28.8005 31.6246Z" fill="#D9D9D9"/>
<circle cx="22.5" cy="22.5" r="21" stroke="#D9D9D9" stroke-width="3"/>
</svg>
