<svg width="25" height="25" viewBox="0 0 25 25" fill="none" xmlns="http://www.w3.org/2000/svg">
<path d="M12.5013 4.1665C7.89818 4.1665 4.16797 7.89775 4.16797 12.4998C4.16797 17.1019 7.89818 20.8332 12.5013 20.8332C17.1044 20.8332 20.8346 17.1019 20.8346 12.4998C20.8346 7.89775 17.1044 4.1665 12.5013 4.1665ZM16.3628 14.8884C16.5581 15.0837 16.6678 15.3486 16.6678 15.6248C16.6678 15.9011 16.5581 16.166 16.3628 16.3613C16.1674 16.5566 15.9025 16.6663 15.6263 16.6663C15.3501 16.6663 15.0852 16.5566 14.8898 16.3613L12.5013 13.9728L10.1128 16.3613C10.0162 16.4584 9.9015 16.5354 9.77511 16.588C9.64872 16.6405 9.51319 16.6676 9.3763 16.6676C9.23942 16.6676 9.10389 16.6405 8.9775 16.588C8.85111 16.5354 8.73636 16.4584 8.63984 16.3613C8.54303 16.2646 8.46622 16.1498 8.41381 16.0235C8.3614 15.8971 8.33443 15.7616 8.33443 15.6248C8.33443 15.488 8.3614 15.3526 8.41381 15.2262C8.46622 15.0998 8.54303 14.985 8.63984 14.8884L11.0284 12.4998L8.63984 10.1113C8.44452 9.91597 8.33479 9.65106 8.33479 9.37484C8.33479 9.09861 8.44452 8.8337 8.63984 8.63838C8.83516 8.44306 9.10008 8.33333 9.3763 8.33333C9.65253 8.33333 9.91744 8.44306 10.1128 8.63838L12.5013 11.0269L14.8898 8.63838C15.0852 8.44306 15.3501 8.33333 15.6263 8.33333C15.9025 8.33333 16.1674 8.44306 16.3628 8.63838C16.5581 8.8337 16.6678 9.09861 16.6678 9.37484C16.6678 9.65106 16.5581 9.91597 16.3628 10.1113L13.9742 12.4998L16.3628 14.8884Z" fill="white"/>
</svg>
