<svg width="17" height="17" viewBox="0 0 17 17" fill="none" xmlns="http://www.w3.org/2000/svg">
<path d="M11.125 6.75L10.2623 6.6065C10.2414 6.7318 10.2481 6.86012 10.2819 6.98257C10.3156 7.10501 10.3756 7.21864 10.4577 7.31556C10.5398 7.41248 10.6421 7.49036 10.7573 7.54379C10.8725 7.59723 10.998 7.62494 11.125 7.625V6.75ZM1.5 6.75V5.875C1.26794 5.875 1.04538 5.96719 0.881282 6.13128C0.717187 6.29538 0.625 6.51794 0.625 6.75H1.5ZM3.25 16.375H13.19V14.625H3.25V16.375ZM14.24 5.875H11.125V7.625H14.24V5.875ZM11.9886 6.8935L12.693 2.66287L10.9675 2.375L10.2623 6.6065L11.9886 6.8935ZM10.9675 0.625H10.7803V2.375H10.9675V0.625ZM7.86738 2.18338L5.66762 5.48563L7.12363 6.45687L9.32513 3.15462L7.86738 2.18338ZM4.93875 5.875H1.5V7.625H4.93875V5.875ZM0.625 6.75V13.75H2.375V6.75H0.625ZM15.7643 14.2645L16.8143 9.0145L15.0993 8.6715L14.0492 13.9215L15.7643 14.2645ZM5.66762 5.48563C5.58769 5.60543 5.47856 5.70365 5.35156 5.77157C5.22457 5.83949 5.08277 5.87502 4.93875 5.875V7.625C5.37088 7.62497 5.79633 7.51825 6.17732 7.31433C6.55831 7.1104 6.88306 6.81557 7.12275 6.456L5.66762 5.48563ZM12.693 2.66287C12.7348 2.41222 12.7215 2.15547 12.6541 1.91047C12.5866 1.66547 12.4666 1.4381 12.3024 1.24416C12.1382 1.05023 11.9337 0.894382 11.7032 0.787458C11.4727 0.680533 11.2216 0.625096 10.9675 0.625V2.375L12.693 2.66287ZM14.24 7.625C14.3695 7.62495 14.4974 7.65363 14.6144 7.70898C14.7315 7.76434 14.8348 7.84498 14.9169 7.94509C14.999 8.0452 15.0579 8.16228 15.0893 8.2879C15.1206 8.41352 15.1246 8.54453 15.0993 8.6715L16.8143 9.0145C16.8904 8.63374 16.881 8.24084 16.787 7.86412C16.6929 7.4874 16.5165 7.13623 16.2703 6.83593C16.0242 6.53563 15.7145 6.29368 15.3635 6.12752C15.0126 5.96135 14.6292 5.8751 14.2409 5.875L14.24 7.625ZM13.19 16.375C13.7969 16.375 14.3851 16.1648 14.8544 15.78C15.3238 15.3952 15.6453 14.8596 15.7643 14.2645L14.0492 13.9215C14.0096 14.1201 13.9022 14.2987 13.7455 14.427C13.5888 14.5553 13.3925 14.6253 13.19 14.625V16.375ZM10.7803 0.625C10.2041 0.62501 9.63686 0.767253 9.12887 1.0391C8.62089 1.31095 8.187 1.70401 7.86738 2.18338L9.32513 3.15462C9.48489 2.91486 9.7005 2.71825 9.95449 2.58224C10.2085 2.44624 10.4921 2.37505 10.7803 2.375V0.625ZM3.25 14.625C3.01794 14.625 2.79538 14.5328 2.63128 14.3687C2.46719 14.2046 2.375 13.9821 2.375 13.75H0.625C0.625 14.4462 0.901562 15.1139 1.39384 15.6062C1.88613 16.0984 2.55381 16.375 3.25 16.375V14.625Z" fill="#545454"/>
<path d="M5 6.75V15.5" stroke="#545454" stroke-width="2"/>
</svg>
