<svg width="17" height="17" viewBox="0 0 17 17" fill="none" xmlns="http://www.w3.org/2000/svg">
<path d="M7.57031 3.83496C7.57031 4.08153 7.66826 4.318 7.84261 4.49235C8.01696 4.6667 8.25343 4.76465 8.5 4.76465C8.74657 4.76465 8.98304 4.6667 9.15739 4.49235C9.33174 4.318 9.42969 4.08153 9.42969 3.83496C9.42969 3.58839 9.33174 3.35192 9.15739 3.17757C8.98304 3.00322 8.74657 2.90527 8.5 2.90527C8.25343 2.90527 8.01696 3.00322 7.84261 3.17757C7.66826 3.35192 7.57031 3.58839 7.57031 3.83496ZM7.57031 8.4834C7.57031 8.72997 7.66826 8.96644 7.84261 9.14079C8.01696 9.31514 8.25343 9.41309 8.5 9.41309C8.74657 9.41309 8.98304 9.31514 9.15739 9.14079C9.33174 8.96644 9.42969 8.72997 9.42969 8.4834C9.42969 8.23683 9.33174 8.00036 9.15739 7.82601C8.98304 7.65166 8.74657 7.55371 8.5 7.55371C8.25343 7.55371 8.01696 7.65166 7.84261 7.82601C7.66826 8.00036 7.57031 8.23683 7.57031 8.4834ZM7.57031 13.1318C7.57031 13.3784 7.66826 13.6149 7.84261 13.7892C8.01696 13.9636 8.25343 14.0615 8.5 14.0615C8.74657 14.0615 8.98304 13.9636 9.15739 13.7892C9.33174 13.6149 9.42969 13.3784 9.42969 13.1318C9.42969 12.8853 9.33174 12.6488 9.15739 12.4744C8.98304 12.3001 8.74657 12.2021 8.5 12.2021C8.25343 12.2021 8.01696 12.3001 7.84261 12.4744C7.66826 12.6488 7.57031 12.8853 7.57031 13.1318Z" fill="#545454"/>
</svg>
