<svg width="20" height="20" viewBox="0 0 20 20" fill="none" xmlns="http://www.w3.org/2000/svg">
<path d="M10.0638 15.8334C8.43547 15.8334 7.05602 15.2687 5.92547 14.1392C4.79547 13.0092 4.23047 11.6304 4.23047 10.0026C4.23047 8.3748 4.79547 6.99536 5.92547 5.86425C7.05547 4.73314 8.43491 4.1673 10.0638 4.16675C11.0544 4.16675 11.9819 4.40203 12.8463 4.87258C13.7102 5.34314 14.4066 6.00008 14.9355 6.84341V4.16675H15.7688V8.52508H11.4105V7.69175H14.4938C14.0594 6.86119 13.4488 6.2048 12.6621 5.72258C11.8755 5.24036 11.0094 4.99953 10.0638 5.00008C8.67491 5.00008 7.49436 5.48619 6.52214 6.45841C5.54991 7.43064 5.0638 8.61119 5.0638 10.0001C5.0638 11.389 5.54991 12.5695 6.52214 13.5417C7.49436 14.514 8.67491 15.0001 10.0638 15.0001C11.1332 15.0001 12.0985 14.6945 12.9596 14.0834C13.8207 13.4723 14.4249 12.6667 14.7721 11.6667H15.6571C15.2894 12.9145 14.591 13.9209 13.5621 14.6859C12.5332 15.4509 11.3671 15.8334 10.0638 15.8334Z" fill="#757575"/>
</svg>
