<svg width="20" height="20" viewBox="0 0 20 20" fill="none" xmlns="http://www.w3.org/2000/svg">
<path d="M10.0638 15.8333C8.43547 15.8333 7.05602 15.2686 5.92547 14.1391C4.79547 13.0091 4.23047 11.6302 4.23047 10.0025C4.23047 8.37468 4.79547 6.99524 5.92547 5.86413C7.05547 4.73302 8.43491 4.16718 10.0638 4.16663C11.0544 4.16663 11.9819 4.4019 12.8463 4.87246C13.7102 5.34301 14.4066 5.99996 14.9355 6.84329V4.16663H15.7688V8.52496H11.4105V7.69163H14.4938C14.0594 6.86107 13.4488 6.20468 12.6621 5.72246C11.8755 5.24024 11.0094 4.9994 10.0638 4.99996C8.67491 4.99996 7.49436 5.48607 6.52214 6.45829C5.54991 7.43051 5.0638 8.61107 5.0638 9.99996C5.0638 11.3888 5.54991 12.5694 6.52214 13.5416C7.49436 14.5138 8.67491 15 10.0638 15C11.1332 15 12.0985 14.6944 12.9596 14.0833C13.8207 13.4722 14.4249 12.6666 14.7721 11.6666H15.6571C15.2894 12.9144 14.591 13.9208 13.5621 14.6858C12.5332 15.4508 11.3671 15.8333 10.0638 15.8333Z" fill="#04ACB5"/>
</svg>
