<svg width="20" height="15" viewBox="0 0 20 15" fill="none" xmlns="http://www.w3.org/2000/svg">
<path d="M18.9994 -0.000104904L0.999426 -0.000104904C0.817184 0.000466347 0.63855 0.0507298 0.48275 0.145273C0.32695 0.239817 0.199884 0.37506 0.115231 0.536448C0.0305767 0.697835 -0.00845909 0.879255 0.00232315 1.06118C0.0131054 1.2431 0.0732994 1.41864 0.176426 1.5689L9.17643 14.5689C9.54943 15.1079 10.4474 15.1079 10.8214 14.5689L19.8214 1.5689C19.9256 1.41895 19.9867 1.24333 19.9981 1.0611C20.0094 0.878874 19.9706 0.697017 19.8859 0.535288C19.8012 0.373559 19.6738 0.238141 19.5175 0.143751C19.3612 0.0493612 19.182 -0.000392914 18.9994 -0.000104904Z" fill="#545454"/>
</svg>
