<svg width="26" height="36" viewBox="0 0 26 36" fill="none" xmlns="http://www.w3.org/2000/svg">
<g clip-path="url(#clip0_4737_3720)">
<path d="M14.5294 6.13721C13.6831 5.2583 12.3086 5.2583 11.4622 6.13721L0.628906 17.3872C-0.217448 18.2661 -0.217448 19.6935 0.628906 20.5724C1.47526 21.4513 2.84974 21.4513 3.69609 20.5724L10.8326 13.1544V29.9345C10.8326 31.1791 11.8008 32.1845 12.9992 32.1845C14.1977 32.1845 15.1659 31.1791 15.1659 29.9345V13.1614L22.3023 20.5653C23.1487 21.4442 24.5232 21.4442 25.3695 20.5653C26.2159 19.6864 26.2159 18.2591 25.3695 17.3802L14.5362 6.13018L14.5294 6.13721Z" fill="white"/>
</g>
<defs>
<clipPath id="clip0_4737_3720">
<rect width="26" height="36" fill="white"/>
</clipPath>
</defs>
</svg>
