<svg width="35" height="24" viewBox="0 0 35 24" fill="none" xmlns="http://www.w3.org/2000/svg">
<path fill-rule="evenodd" clip-rule="evenodd" d="M27.8926 6.38529e-08C28.6083 -0.000119997 29.3145 0.169072 29.9565 0.494493C30.5985 0.819913 31.1591 1.29284 31.595 1.8767L31.7754 2.13749L33.44 4.70536C33.8863 5.39366 34.1521 6.18894 34.2116 7.01404L34.224 7.36922V17.5991C34.2242 18.4064 33.9278 19.1839 33.3941 19.7758C32.8603 20.3678 32.1288 20.7304 31.3461 20.7909L31.1127 20.7989H30.8483C30.5346 21.7113 29.9603 22.505 29.2004 23.0758C28.4406 23.6466 27.5308 23.968 26.5903 23.9977C25.6497 24.0275 24.7224 23.7642 23.9299 23.2425C23.1374 22.7208 22.5167 21.965 22.1491 21.0741L22.0434 20.7989H12.1791C11.8652 21.7108 11.2908 22.504 10.5311 23.0744C9.77144 23.6448 8.86195 23.9659 7.9218 23.9957C6.98165 24.0254 6.05469 23.7624 5.26237 23.2411C4.47005 22.7198 3.84932 21.9644 3.48151 21.0741L3.37573 20.7989H3.11127C2.32634 20.7992 1.57031 20.4943 0.994755 19.9454C0.419198 19.3965 0.0666484 18.6441 0.00777818 17.8391L7.24996e-09 17.5991V4.79975C-6.63039e-05 3.57548 0.454752 2.39745 1.2714 1.5067C2.08804 0.615957 3.20478 0.0798239 4.39312 0.00799983L4.66691 6.38529e-08H27.8926ZM26.4458 17.5991C26.0332 17.5991 25.6376 17.7676 25.3458 18.0677C25.0541 18.3677 24.8902 18.7747 24.8902 19.199C24.8902 19.6233 25.0541 20.0303 25.3458 20.3303C25.6376 20.6304 26.0332 20.7989 26.4458 20.7989C26.8584 20.7989 27.2541 20.6304 27.5458 20.3303C27.8376 20.0303 28.0015 19.6233 28.0015 19.199C28.0015 18.7747 27.8376 18.3677 27.5458 18.0677C27.2541 17.7676 26.8584 17.5991 26.4458 17.5991ZM7.77818 17.5991C7.3656 17.5991 6.96992 17.7676 6.67818 18.0677C6.38644 18.3677 6.22255 18.7747 6.22255 19.199C6.22255 19.6233 6.38644 20.0303 6.67818 20.3303C6.96992 20.6304 7.3656 20.7989 7.77818 20.7989C8.19076 20.7989 8.58644 20.6304 8.87818 20.3303C9.16992 20.0303 9.33382 19.6233 9.33382 19.199C9.33382 18.7747 9.16992 18.3677 8.87818 18.0677C8.58644 17.7676 8.19076 17.5991 7.77818 17.5991ZM27.8926 3.19983H26.4458V9.5995H31.1127V7.36922C31.1128 7.05318 31.0219 6.7442 30.8514 6.48126L29.1868 3.9118C29.0447 3.69274 28.8523 3.51315 28.6265 3.38895C28.4007 3.26475 28.1486 3.19979 27.8926 3.19983ZM7.77818 3.19983H4.66691C4.28588 3.19989 3.91812 3.34376 3.63339 3.60416C3.34865 3.86456 3.16674 4.22338 3.12216 4.61256L3.11127 4.79975V7.99958H7.77818V3.19983ZM15.5564 3.19983H10.8895V7.99958H15.5564V3.19983ZM23.3345 3.19983H18.6676V7.99958H23.3345V3.19983Z" fill="#C4C4C4"/>
</svg>
