<svg width="36" height="24" viewBox="0 0 36 24" fill="none" xmlns="http://www.w3.org/2000/svg">
<path d="M29.7905 8.57143H28.9143L22.9573 1.28679C22.6289 0.885313 22.2123 0.561219 21.7386 0.338482C21.2648 0.115744 20.7459 6.42909e-05 20.2203 0H8.50617C7.07305 0 5.7845 0.853393 5.25221 2.15518L2.62857 8.6925C1.11933 9.075 0 10.4041 0 12V18C0 18.4736 0.392095 18.8571 0.87619 18.8571H3.50476C3.50476 21.6975 5.85843 24 8.7619 24C11.6654 24 14.019 21.6975 14.019 18.8571H21.0286C21.0286 21.6975 23.3822 24 26.2857 24C29.1892 24 31.5429 21.6975 31.5429 18.8571H34.1714C34.6555 18.8571 35.0476 18.4736 35.0476 18V13.7143C35.0476 10.8739 32.694 8.57143 29.7905 8.57143ZM8.7619 21.4286C7.31236 21.4286 6.13333 20.2752 6.13333 18.8571C6.13333 17.4391 7.31236 16.2857 8.7619 16.2857C10.2115 16.2857 11.3905 17.4391 11.3905 18.8571C11.3905 20.2752 10.2115 21.4286 8.7619 21.4286ZM12.7048 8.57143H6.40331L8.50617 3.42857H12.7048V8.57143ZM15.3333 8.57143V3.42857H20.2203L24.426 8.57143H15.3333ZM26.2857 21.4286C24.8362 21.4286 23.6571 20.2752 23.6571 18.8571C23.6571 17.4391 24.8362 16.2857 26.2857 16.2857C27.7353 16.2857 28.9143 17.4391 28.9143 18.8571C28.9143 20.2752 27.7353 21.4286 26.2857 21.4286Z" fill="#C4C4C4"/>
</svg>
