<svg width="23" height="24" viewBox="0 0 23 24" fill="none" xmlns="http://www.w3.org/2000/svg">
<path d="M12.2764 0.0506561C12.539 -0.0260392 12.8194 -0.01541 13.0754 0.0809455C13.3314 0.177301 13.5493 0.354174 13.6961 0.584969L22.5382 14.4796C22.6598 14.6706 22.7278 14.8908 22.7351 15.1171C22.7424 15.3434 22.6888 15.5675 22.5798 15.7659C22.4709 15.9644 22.3105 16.1299 22.1157 16.2452C21.9208 16.3604 21.6985 16.4212 21.4721 16.4211H12.63C12.295 16.4211 11.9737 16.288 11.7369 16.0511C11.5 15.8142 11.3669 15.493 11.3669 15.1579V1.26328C11.3669 0.989973 11.4555 0.724037 11.6195 0.505391C11.7835 0.286744 12.014 0.127182 12.2764 0.0506561ZM0.23853 18.2085C0.355444 18.0464 0.509148 17.9143 0.687014 17.8232C0.86488 17.7321 1.06183 17.6845 1.26168 17.6842H21.4721C21.6727 17.6841 21.8705 17.7318 22.0491 17.8233C22.2276 17.9149 22.3818 18.0476 22.4988 18.2106C22.6158 18.3735 22.6924 18.562 22.7221 18.7604C22.7518 18.9589 22.7338 19.1615 22.6696 19.3516C22.4081 20.1221 22.0254 20.8674 21.5757 21.5432C20.8936 22.5663 19.6165 24 17.6826 24H5.05114C3.11851 24 1.84021 22.5663 1.1581 21.5432C0.700594 20.8624 0.332923 20.1253 0.0642154 19.3503C0.00142263 19.1598 -0.0156319 18.9571 0.0144315 18.7587C0.044495 18.5604 0.120832 18.3719 0.237267 18.2085H0.23853ZM7.76944 4.38326C7.9148 4.15067 8.13193 3.97172 8.388 3.87345C8.64407 3.77517 8.92517 3.76291 9.18882 3.83853C9.45247 3.91414 9.68435 4.07352 9.84941 4.29257C10.0145 4.51163 10.1037 4.77845 10.1037 5.05273V15.1579C10.1037 15.493 9.97066 15.8142 9.73377 16.0511C9.49688 16.288 9.1756 16.4211 8.84059 16.4211H2.52483C2.29935 16.4211 2.07799 16.3607 1.88371 16.2463C1.68943 16.1319 1.52933 15.9675 1.42003 15.7703C1.31072 15.5731 1.2562 15.3502 1.26212 15.1248C1.26803 14.8994 1.33418 14.6797 1.45368 14.4885L7.76944 4.38326Z" fill="#C4C4C4"/>
</svg>
