<svg width="23" height="21" viewBox="0 0 23 21" fill="none" xmlns="http://www.w3.org/2000/svg">
<path fill-rule="evenodd" clip-rule="evenodd" d="M2 5C2 3.34315 3.34315 2 5 2H13.2366C14.8934 2 16.2366 3.34315 16.2366 5V6.28587L13.9995 8.52296C13.8151 8.26875 13.5156 8.10343 13.1775 8.10343H5.05924C4.49879 8.10343 4.04446 8.55776 4.04446 9.11821C4.04446 9.67867 4.49879 10.133 5.05924 10.133H12.3895L10.3391 12.1833C10.2726 12.1696 10.2037 12.1624 10.1332 12.1624H5.05924C4.49879 12.1624 4.04446 12.6167 4.04446 13.1772C4.04446 13.7376 4.49879 14.192 5.05924 14.192H9.13272L8.89727 15.1844C8.72509 15.9101 8.96617 16.5992 9.4318 17.063C9.89558 17.5251 10.5822 17.7636 11.305 17.5921L12.7976 17.238C13.1582 17.1524 13.488 16.9683 13.7501 16.7062L16.2366 14.2197V15.2662C16.2366 16.923 14.8934 18.2662 13.2366 18.2662H5C3.34315 18.2662 2 16.923 2 15.2662V5ZM18.2366 12.2197V15.2662C18.2366 18.0276 15.998 20.2662 13.2366 20.2662H5C2.23858 20.2662 0 18.0276 0 15.2662V5C0 2.23858 2.23858 0 5 0H13.2366C15.8361 0 17.9722 1.98372 18.2138 4.51993C18.94 4.21675 19.8086 4.3606 20.3995 4.9515L21.538 6.08993C22.319 6.87098 22.319 8.13731 21.538 8.91835L18.2366 12.2197ZM16.54 11.0879L20.1237 7.50414L18.9853 6.36572L11.1974 14.1536L10.8433 15.646L12.3358 15.2919L16.5295 11.0983C16.533 11.0948 16.5365 11.0913 16.54 11.0879ZM4.04446 5.05924C4.04446 4.49879 4.49879 4.04445 5.05924 4.04445H13.1775C13.738 4.04445 14.1923 4.49879 14.1923 5.05924C14.1923 5.61969 13.738 6.07403 13.1775 6.07403H5.05924C4.49879 6.07403 4.04446 5.61969 4.04446 5.05924Z" fill="#4FBDB7"/>
</svg>
