<svg width="18" height="18" viewBox="0 0 18 18" fill="none" xmlns="http://www.w3.org/2000/svg">
<g clip-path="url(#clip0_3547_1919)">
<path d="M9.44071 14.2096C9.16931 14.0452 8.829 14.0452 8.55761 14.2097L4.39532 16.7325C3.75017 17.1235 2.95263 16.545 3.12406 15.8103L4.22755 11.0813C4.29924 10.7741 4.19529 10.4524 3.95739 10.2452L0.293637 7.05464C-0.273874 6.56042 0.031211 5.62693 0.781053 5.56325L5.60934 5.15324C5.92375 5.12654 6.19766 4.92825 6.3212 4.63789L8.21605 0.184418C8.51015 -0.506786 9.48985 -0.506785 9.78395 0.184419L11.6788 4.6379C11.8023 4.92825 12.0762 5.12654 12.3907 5.15324L17.2189 5.56325C17.9688 5.62693 18.2739 6.56042 17.7064 7.05464L14.0426 10.2452C13.8047 10.4524 13.7008 10.7741 13.7725 11.0813L14.876 15.8106C15.0474 16.5452 14.25 17.1238 13.6048 16.7328L9.44071 14.2096Z" fill="#E0E8F1"/>
</g>
<defs>
<clipPath id="clip0_3547_1919">
<rect width="18" height="17.25" fill="white"/>
</clipPath>
</defs>
</svg>
