<svg width="75" height="75" viewBox="0 0 75 75" fill="none" xmlns="http://www.w3.org/2000/svg">
<path d="M12.5 12.5H21.875L28.125 6.25H46.875L53.125 12.5H62.5C64.1576 12.5 65.7473 13.1585 66.9194 14.3306C68.0915 15.5027 68.75 17.0924 68.75 18.75V56.25C68.75 57.9076 68.0915 59.4973 66.9194 60.6694C65.7473 61.8415 64.1576 62.5 62.5 62.5H12.5C10.8424 62.5 9.25268 61.8415 8.08058 60.6694C6.90848 59.4973 6.25 57.9076 6.25 56.25V18.75C6.25 17.0924 6.90848 15.5027 8.08058 14.3306C9.25268 13.1585 10.8424 12.5 12.5 12.5ZM37.5 21.875C33.356 21.875 29.3817 23.5212 26.4515 26.4515C23.5212 29.3817 21.875 33.356 21.875 37.5C21.875 41.644 23.5212 45.6183 26.4515 48.5485C29.3817 51.4788 33.356 53.125 37.5 53.125C41.644 53.125 45.6183 51.4788 48.5485 48.5485C51.4788 45.6183 53.125 41.644 53.125 37.5C53.125 33.356 51.4788 29.3817 48.5485 26.4515C45.6183 23.5212 41.644 21.875 37.5 21.875ZM37.5 28.125C39.9864 28.125 42.371 29.1127 44.1291 30.8709C45.8873 32.629 46.875 35.0136 46.875 37.5C46.875 39.9864 45.8873 42.371 44.1291 44.1291C42.371 45.8873 39.9864 46.875 37.5 46.875C35.0136 46.875 32.629 45.8873 30.8709 44.1291C29.1127 42.371 28.125 39.9864 28.125 37.5C28.125 35.0136 29.1127 32.629 30.8709 30.8709C32.629 29.1127 35.0136 28.125 37.5 28.125Z" fill="#C4C4C4"/>
</svg>
