<svg width="201" height="201" viewBox="0 0 201 201" fill="none" xmlns="http://www.w3.org/2000/svg">
<path d="M75.5 75.5H84.875L91.125 69.25H109.875L116.125 75.5H125.5C127.158 75.5 128.747 76.1585 129.919 77.3306C131.092 78.5027 131.75 80.0924 131.75 81.75V119.25C131.75 120.908 131.092 122.497 129.919 123.669C128.747 124.842 127.158 125.5 125.5 125.5H75.5C73.8424 125.5 72.2527 124.842 71.0806 123.669C69.9085 122.497 69.25 120.908 69.25 119.25V81.75C69.25 80.0924 69.9085 78.5027 71.0806 77.3306C72.2527 76.1585 73.8424 75.5 75.5 75.5ZM100.5 84.875C96.356 84.875 92.3817 86.5212 89.4515 89.4515C86.5212 92.3817 84.875 96.356 84.875 100.5C84.875 104.644 86.5212 108.618 89.4515 111.549C92.3817 114.479 96.356 116.125 100.5 116.125C104.644 116.125 108.618 114.479 111.549 111.549C114.479 108.618 116.125 104.644 116.125 100.5C116.125 96.356 114.479 92.3817 111.549 89.4515C108.618 86.5212 104.644 84.875 100.5 84.875ZM100.5 91.125C102.986 91.125 105.371 92.1127 107.129 93.8709C108.887 95.629 109.875 98.0136 109.875 100.5C109.875 102.986 108.887 105.371 107.129 107.129C105.371 108.887 102.986 109.875 100.5 109.875C98.0136 109.875 95.629 108.887 93.8709 107.129C92.1127 105.371 91.125 102.986 91.125 100.5C91.125 98.0136 92.1127 95.629 93.8709 93.8709C95.629 92.1127 98.0136 91.125 100.5 91.125Z" fill="#C4C4C4"/>
</svg>
