<svg width="20" height="20" viewBox="0 0 20 20" fill="none" xmlns="http://www.w3.org/2000/svg">
<path fill-rule="evenodd" clip-rule="evenodd" d="M14.5607 5.2263C14.6418 5.1482 14.7376 5.08687 14.8425 5.04581C14.9474 5.00474 15.0593 4.98476 15.1719 4.98698C15.2845 4.98921 15.3956 5.01362 15.4988 5.0588C15.602 5.10398 15.6952 5.16905 15.7733 5.2503L19.7619 9.40687C19.9149 9.56645 20.0003 9.77896 20.0003 10C20.0003 10.2211 19.9149 10.4336 19.7619 10.5932L15.7733 14.7497C15.6953 14.8309 15.6021 14.896 15.499 14.9411C15.3959 14.9863 15.2849 15.0107 15.1723 15.013C15.0598 15.0153 14.9479 14.9954 14.843 14.9544C14.7382 14.9135 14.6424 14.8523 14.5612 14.7743C14.48 14.6963 14.415 14.6031 14.3698 14.5C14.3246 14.3969 14.3002 14.2859 14.2979 14.1734C14.2956 14.0608 14.3155 13.949 14.3565 13.8441C14.3975 13.7393 14.4587 13.6435 14.5367 13.5623L17.1321 10.8572H9.16966C8.94233 10.8572 8.72431 10.7669 8.56356 10.6061C8.40281 10.4454 8.3125 10.2273 8.3125 10C8.3125 9.77269 8.40281 9.55467 8.56356 9.39392C8.72431 9.23318 8.94233 9.14287 9.16966 9.14287H17.1333L14.5367 6.43773C14.3794 6.27371 14.2938 6.05397 14.2985 5.82681C14.3032 5.59965 14.3979 5.38366 14.5618 5.2263" fill="#979797"/>
<path fill-rule="evenodd" clip-rule="evenodd" d="M0 0.857143C0 0.629814 0.0903079 0.411797 0.251057 0.251051C0.411807 0.0903058 0.62983 0 0.857164 0H11.6631C11.8905 0 12.1085 0.0903058 12.2692 0.251051C12.43 0.411797 12.5203 0.629814 12.5203 0.857143V4.28571C12.5203 4.51304 12.43 4.73106 12.2692 4.89181C12.1085 5.05255 11.8905 5.14286 11.6631 5.14286C11.4358 5.14286 11.2178 5.05255 11.057 4.89181C10.8963 4.73106 10.806 4.51304 10.806 4.28571V1.71429H1.71433V18.2857H10.8048V15.7143C10.8048 15.487 10.8951 15.2689 11.0559 15.1082C11.2166 14.9474 11.4347 14.8571 11.662 14.8571C11.8893 14.8571 12.1074 14.9474 12.2681 15.1082C12.4289 15.2689 12.5192 15.487 12.5192 15.7143V19.1429C12.5192 19.3702 12.4289 19.5882 12.2681 19.749C12.1074 19.9097 11.8893 20 11.662 20H0.857164C0.62983 20 0.411807 19.9097 0.251057 19.749C0.0903079 19.5882 0 19.3702 0 19.1429V0.857143Z" fill="#979797"/>
</svg>
