<svg width="15" height="16" viewBox="0 0 15 16" fill="none" xmlns="http://www.w3.org/2000/svg">
<path d="M7.5 8C6.46875 8 5.58594 7.63281 4.85156 6.89844C4.11719 6.16406 3.75 5.28125 3.75 4.25C3.75 3.21875 4.11719 2.33594 4.85156 1.60156C5.58594 0.867188 6.46875 0.5 7.5 0.5C8.53125 0.5 9.41406 0.867188 10.1484 1.60156C10.8828 2.33594 11.25 3.21875 11.25 4.25C11.25 5.28125 10.8828 6.16406 10.1484 6.89844C9.41406 7.63281 8.53125 8 7.5 8ZM0 15.5V12.875C0 12.3438 0.136875 11.8556 0.410625 11.4106C0.684375 10.9656 1.0475 10.6256 1.5 10.3906C2.46875 9.90625 3.45312 9.54312 4.45312 9.30125C5.45312 9.05937 6.46875 8.93812 7.5 8.9375C8.53125 8.93688 9.54687 9.05812 10.5469 9.30125C11.5469 9.54437 12.5312 9.9075 13.5 10.3906C13.9531 10.625 14.3166 10.965 14.5903 11.4106C14.8641 11.8562 15.0006 12.3444 15 12.875V15.5H0ZM1.875 13.625H13.125V12.875C13.125 12.7031 13.0822 12.5469 12.9966 12.4062C12.9109 12.2656 12.7975 12.1562 12.6562 12.0781C11.8125 11.6562 10.9609 11.34 10.1016 11.1294C9.24218 10.9187 8.375 10.8131 7.5 10.8125C6.625 10.8119 5.75781 10.9175 4.89844 11.1294C4.03906 11.3412 3.1875 11.6575 2.34375 12.0781C2.20312 12.1562 2.08969 12.2656 2.00344 12.4062C1.91719 12.5469 1.87437 12.7031 1.875 12.875V13.625ZM7.5 6.125C8.01562 6.125 8.45719 5.94156 8.82469 5.57469C9.19219 5.20781 9.37562 4.76625 9.375 4.25C9.37437 3.73375 9.19094 3.2925 8.82469 2.92625C8.45844 2.56 8.01687 2.37625 7.5 2.375C6.98312 2.37375 6.54187 2.5575 6.17625 2.92625C5.81062 3.295 5.62687 3.73625 5.625 4.25C5.62312 4.76375 5.80687 5.20531 6.17625 5.57469C6.54562 5.94406 6.98687 6.1275 7.5 6.125Z" fill="#C4C4C4"/>
</svg>
