<svg width="18" height="19" viewBox="0 0 18 19" fill="none" xmlns="http://www.w3.org/2000/svg">
<path fill-rule="evenodd" clip-rule="evenodd" d="M17.3999 9.69463C17.3999 9.08685 17.3453 8.50244 17.244 7.94141H9.17139V11.257H13.7843C13.5856 12.3284 12.9817 13.2361 12.074 13.8439V15.9946H14.844C16.4648 14.5024 17.3999 12.305 17.3999 9.69463Z" fill="#4285F4"/>
<path fill-rule="evenodd" clip-rule="evenodd" d="M9.17137 18.0717C11.4856 18.0717 13.4259 17.3042 14.844 15.9951L12.0739 13.8445C11.3064 14.3587 10.3246 14.6626 9.17137 14.6626C6.93893 14.6626 5.04934 13.1549 4.37532 11.1289H1.51172V13.3497C2.92209 16.1509 5.82076 18.0717 9.17137 18.0717Z" fill="#34A853"/>
<path fill-rule="evenodd" clip-rule="evenodd" d="M4.37538 11.1282C4.20395 10.614 4.10655 10.0646 4.10655 9.4997C4.10655 8.93477 4.20395 8.38542 4.37538 7.87114V5.65039H1.51178C0.931263 6.80752 0.600098 8.1166 0.600098 9.4997C0.600098 10.8828 0.931263 12.1919 1.51178 13.349L4.37538 11.1282Z" fill="#FBBC05"/>
<path fill-rule="evenodd" clip-rule="evenodd" d="M9.17137 4.33679C10.4298 4.33679 11.5597 4.76925 12.448 5.61859L14.9064 3.16018C13.422 1.77708 11.4817 0.927734 9.17137 0.927734C5.82076 0.927734 2.92209 2.84849 1.51172 5.64976L4.37532 7.87051C5.04934 5.84456 6.93893 4.33679 9.17137 4.33679Z" fill="#EA4335"/>
</svg>
