<svg width="26" height="25" viewBox="0 0 26 25" fill="none" xmlns="http://www.w3.org/2000/svg">
<path d="M13 15C13.2472 15 13.4889 14.9267 13.6945 14.7893C13.9 14.652 14.0602 14.4568 14.1549 14.2284C14.2495 13.9999 14.2742 13.7486 14.226 13.5061C14.1778 13.2637 14.0587 13.0409 13.8839 12.8661C13.7091 12.6913 13.4863 12.5722 13.2439 12.524C13.0014 12.4758 12.7501 12.5005 12.5216 12.5951C12.2932 12.6898 12.098 12.85 11.9607 13.0555C11.8233 13.2611 11.75 13.5028 11.75 13.75C11.75 14.0815 11.8817 14.3995 12.1161 14.6339C12.3505 14.8683 12.6685 15 13 15ZM19.25 15C19.4972 15 19.7389 14.9267 19.9445 14.7893C20.15 14.652 20.3102 14.4568 20.4049 14.2284C20.4995 13.9999 20.5242 13.7486 20.476 13.5061C20.4277 13.2637 20.3087 13.0409 20.1339 12.8661C19.9591 12.6913 19.7363 12.5722 19.4939 12.524C19.2514 12.4758 19.0001 12.5005 18.7716 12.5951C18.5432 12.6898 18.348 12.85 18.2107 13.0555C18.0733 13.2611 18 13.5028 18 13.75C18 14.0815 18.1317 14.3995 18.3661 14.6339C18.6005 14.8683 18.9185 15 19.25 15ZM13 20C13.2472 20 13.4889 19.9267 13.6945 19.7893C13.9 19.652 14.0602 19.4568 14.1549 19.2284C14.2495 18.9999 14.2742 18.7486 14.226 18.5061C14.1778 18.2637 14.0587 18.0409 13.8839 17.8661C13.7091 17.6913 13.4863 17.5723 13.2439 17.524C13.0014 17.4758 12.7501 17.5005 12.5216 17.5951C12.2932 17.6898 12.098 17.85 11.9607 18.0555C11.8233 18.2611 11.75 18.5028 11.75 18.75C11.75 19.0815 11.8817 19.3995 12.1161 19.6339C12.3505 19.8683 12.6685 20 13 20ZM19.25 20C19.4972 20 19.7389 19.9267 19.9445 19.7893C20.15 19.652 20.3102 19.4568 20.4049 19.2284C20.4995 18.9999 20.5242 18.7486 20.476 18.5061C20.4277 18.2637 20.3087 18.0409 20.1339 17.8661C19.9591 17.6913 19.7363 17.5723 19.4939 17.524C19.2514 17.4758 19.0001 17.5005 18.7716 17.5951C18.5432 17.6898 18.348 17.85 18.2107 18.0555C18.0733 18.2611 18 18.5028 18 18.75C18 19.0815 18.1317 19.3995 18.3661 19.6339C18.6005 19.8683 18.9185 20 19.25 20ZM6.75 15C6.99723 15 7.2389 14.9267 7.44446 14.7893C7.65002 14.652 7.81024 14.4568 7.90485 14.2284C7.99946 13.9999 8.02421 13.7486 7.97598 13.5061C7.92775 13.2637 7.8087 13.0409 7.63388 12.8661C7.45907 12.6913 7.23634 12.5722 6.99386 12.524C6.75139 12.4758 6.50005 12.5005 6.27165 12.5951C6.04324 12.6898 5.84801 12.85 5.71066 13.0555C5.57331 13.2611 5.5 13.5028 5.5 13.75C5.5 14.0815 5.6317 14.3995 5.86612 14.6339C6.10054 14.8683 6.41848 15 6.75 15ZM21.75 2.5H20.5V1.25C20.5 0.918479 20.3683 0.600537 20.1339 0.366116C19.8995 0.131696 19.5815 0 19.25 0C18.9185 0 18.6005 0.131696 18.3661 0.366116C18.1317 0.600537 18 0.918479 18 1.25V2.5H8V1.25C8 0.918479 7.8683 0.600537 7.63388 0.366116C7.39946 0.131696 7.08152 0 6.75 0C6.41848 0 6.10054 0.131696 5.86612 0.366116C5.6317 0.600537 5.5 0.918479 5.5 1.25V2.5H4.25C3.25544 2.5 2.30161 2.89509 1.59835 3.59835C0.895088 4.30161 0.5 5.25544 0.5 6.25V21.25C0.5 22.2446 0.895088 23.1984 1.59835 23.9017C2.30161 24.6049 3.25544 25 4.25 25H21.75C22.7446 25 23.6984 24.6049 24.4017 23.9017C25.1049 23.1984 25.5 22.2446 25.5 21.25V6.25C25.5 5.25544 25.1049 4.30161 24.4017 3.59835C23.6984 2.89509 22.7446 2.5 21.75 2.5ZM23 21.25C23 21.5815 22.8683 21.8995 22.6339 22.1339C22.3995 22.3683 22.0815 22.5 21.75 22.5H4.25C3.91848 22.5 3.60054 22.3683 3.36612 22.1339C3.1317 21.8995 3 21.5815 3 21.25V10H23V21.25ZM23 7.5H3V6.25C3 5.91848 3.1317 5.60054 3.36612 5.36612C3.60054 5.1317 3.91848 5 4.25 5H21.75C22.0815 5 22.3995 5.1317 22.6339 5.36612C22.8683 5.60054 23 5.91848 23 6.25V7.5ZM6.75 20C6.99723 20 7.2389 19.9267 7.44446 19.7893C7.65002 19.652 7.81024 19.4568 7.90485 19.2284C7.99946 18.9999 8.02421 18.7486 7.97598 18.5061C7.92775 18.2637 7.8087 18.0409 7.63388 17.8661C7.45907 17.6913 7.23634 17.5723 6.99386 17.524C6.75139 17.4758 6.50005 17.5005 6.27165 17.5951C6.04324 17.6898 5.84801 17.85 5.71066 18.0555C5.57331 18.2611 5.5 18.5028 5.5 18.75C5.5 19.0815 5.6317 19.3995 5.86612 19.6339C6.10054 19.8683 6.41848 20 6.75 20Z" fill="black"/>
</svg>
