<svg width="28" height="27" viewBox="0 0 28 27" fill="none" xmlns="http://www.w3.org/2000/svg">
<path d="M21.5 8.5C21.5 14.125 14 19.75 14 19.75C14 19.75 6.5 14.125 6.5 8.5C6.5 6.51088 7.29018 4.60322 8.6967 3.1967C10.1032 1.79018 12.0109 1 14 1C15.9891 1 17.8968 1.79018 19.3033 3.1967C20.7098 4.60322 21.5 6.51088 21.5 8.5Z" stroke="black" stroke-width="2" stroke-linecap="round" stroke-linejoin="round"/>
<path d="M14 11C15.3807 11 16.5 9.88071 16.5 8.5C16.5 7.11929 15.3807 6 14 6C12.6193 6 11.5 7.11929 11.5 8.5C11.5 9.88071 12.6193 11 14 11Z" stroke="black" stroke-width="2" stroke-linecap="round" stroke-linejoin="round"/>
<path d="M10.0438 16H5.25C4.99567 16.0139 4.75164 16.1051 4.55058 16.2615C4.34952 16.4178 4.20104 16.6319 4.125 16.875L1.625 24.375C1.5 24.5 1.5 24.625 1.5 24.75C1.5 25.5 2 26 2.75 26H25.25C26 26 26.5 25.5 26.5 24.75C26.5 24.625 26.5 24.5 26.375 24.375L23.875 16.875C23.799 16.6319 23.6505 16.4178 23.4494 16.2615C23.2484 16.1051 23.0043 16.0139 22.75 16H17.9562" stroke="black" stroke-width="2" stroke-linecap="round" stroke-linejoin="round"/>
</svg>
