<svg width="25" height="25" viewBox="0 0 25 25" fill="none" xmlns="http://www.w3.org/2000/svg">
<path d="M12.668 14.6475C12.8658 14.6475 13.0591 14.5888 13.2235 14.4789C13.388 14.369 13.5162 14.2129 13.5918 14.0301C13.6675 13.8474 13.6873 13.6464 13.6488 13.4524C13.6102 13.2584 13.5149 13.0802 13.3751 12.9404C13.2352 12.8005 13.057 12.7053 12.8631 12.6667C12.6691 12.6281 12.468 12.6479 12.2853 12.7236C12.1026 12.7993 11.9464 12.9274 11.8365 13.0919C11.7266 13.2563 11.668 13.4497 11.668 13.6475C11.668 13.9127 11.7733 14.167 11.9609 14.3546C12.1484 14.5421 12.4028 14.6475 12.668 14.6475ZM17.668 14.6475C17.8658 14.6475 18.0591 14.5888 18.2235 14.4789C18.388 14.369 18.5162 14.2129 18.5918 14.0301C18.6675 13.8474 18.6873 13.6464 18.6488 13.4524C18.6102 13.2584 18.5149 13.0802 18.3751 12.9404C18.2352 12.8005 18.057 12.7053 17.8631 12.6667C17.6691 12.6281 17.468 12.6479 17.2853 12.7236C17.1026 12.7993 16.9464 12.9274 16.8365 13.0919C16.7266 13.2563 16.668 13.4497 16.668 13.6475C16.668 13.9127 16.7733 14.167 16.9609 14.3546C17.1484 14.5421 17.4028 14.6475 17.668 14.6475ZM12.668 18.6475C12.8658 18.6475 13.0591 18.5888 13.2235 18.4789C13.388 18.3691 13.5162 18.2129 13.5918 18.0301C13.6675 17.8474 13.6873 17.6464 13.6488 17.4524C13.6102 17.2584 13.5149 17.0802 13.3751 16.9404C13.2352 16.8005 13.057 16.7053 12.8631 16.6667C12.6691 16.6281 12.468 16.6479 12.2853 16.7236C12.1026 16.7993 11.9464 16.9274 11.8365 17.0919C11.7266 17.2563 11.668 17.4497 11.668 17.6475C11.668 17.9127 11.7733 18.167 11.9609 18.3546C12.1484 18.5421 12.4028 18.6475 12.668 18.6475ZM17.668 18.6475C17.8658 18.6475 18.0591 18.5888 18.2235 18.4789C18.388 18.3691 18.5162 18.2129 18.5918 18.0301C18.6675 17.8474 18.6873 17.6464 18.6488 17.4524C18.6102 17.2584 18.5149 17.0802 18.3751 16.9404C18.2352 16.8005 18.057 16.7053 17.8631 16.6667C17.6691 16.6281 17.468 16.6479 17.2853 16.7236C17.1026 16.7993 16.9464 16.9274 16.8365 17.0919C16.7266 17.2563 16.668 17.4497 16.668 17.6475C16.668 17.9127 16.7733 18.167 16.9609 18.3546C17.1484 18.5421 17.4028 18.6475 17.668 18.6475ZM7.66797 14.6475C7.86575 14.6475 8.05909 14.5888 8.22354 14.4789C8.38799 14.369 8.51616 14.2129 8.59185 14.0301C8.66754 13.8474 8.68734 13.6464 8.64875 13.4524C8.61017 13.2584 8.51493 13.0802 8.37508 12.9404C8.23522 12.8005 8.05704 12.7053 7.86306 12.6667C7.66908 12.6281 7.46801 12.6479 7.28529 12.7236C7.10256 12.7993 6.94638 12.9274 6.8365 13.0919C6.72662 13.2563 6.66797 13.4497 6.66797 13.6475C6.66797 13.9127 6.77333 14.167 6.96086 14.3546C7.1484 14.5421 7.40275 14.6475 7.66797 14.6475ZM19.668 4.64746H18.668V3.64746C18.668 3.38224 18.5626 3.12789 18.3751 2.94035C18.1875 2.75282 17.9332 2.64746 17.668 2.64746C17.4028 2.64746 17.1484 2.75282 16.9609 2.94035C16.7733 3.12789 16.668 3.38224 16.668 3.64746V4.64746H8.66797V3.64746C8.66797 3.38224 8.56261 3.12789 8.37508 2.94035C8.18754 2.75282 7.93319 2.64746 7.66797 2.64746C7.40275 2.64746 7.1484 2.75282 6.96086 2.94035C6.77333 3.12789 6.66797 3.38224 6.66797 3.64746V4.64746H5.66797C4.87232 4.64746 4.10926 4.96353 3.54665 5.52614C2.98404 6.08875 2.66797 6.85181 2.66797 7.64746V19.6475C2.66797 20.4431 2.98404 21.2062 3.54665 21.7688C4.10926 22.3314 4.87232 22.6475 5.66797 22.6475H19.668C20.4636 22.6475 21.2267 22.3314 21.7893 21.7688C22.3519 21.2062 22.668 20.4431 22.668 19.6475V7.64746C22.668 6.85181 22.3519 6.08875 21.7893 5.52614C21.2267 4.96353 20.4636 4.64746 19.668 4.64746ZM20.668 19.6475C20.668 19.9127 20.5626 20.167 20.3751 20.3546C20.1875 20.5421 19.9332 20.6475 19.668 20.6475H5.66797C5.40275 20.6475 5.1484 20.5421 4.96086 20.3546C4.77333 20.167 4.66797 19.9127 4.66797 19.6475V10.6475H20.668V19.6475ZM20.668 8.64746H4.66797V7.64746C4.66797 7.38224 4.77333 7.12789 4.96086 6.94035C5.1484 6.75282 5.40275 6.64746 5.66797 6.64746H19.668C19.9332 6.64746 20.1875 6.75282 20.3751 6.94035C20.5626 7.12789 20.668 7.38224 20.668 7.64746V8.64746ZM7.66797 18.6475C7.86575 18.6475 8.05909 18.5888 8.22354 18.4789C8.38799 18.3691 8.51616 18.2129 8.59185 18.0301C8.66754 17.8474 8.68734 17.6464 8.64875 17.4524C8.61017 17.2584 8.51493 17.0802 8.37508 16.9404C8.23522 16.8005 8.05704 16.7053 7.86306 16.6667C7.66908 16.6281 7.46801 16.6479 7.28529 16.7236C7.10256 16.7993 6.94638 16.9274 6.8365 17.0919C6.72662 17.2563 6.66797 17.4497 6.66797 17.6475C6.66797 17.9127 6.77333 18.167 6.96086 18.3546C7.1484 18.5421 7.40275 18.6475 7.66797 18.6475Z" fill="#545454"/>
</svg>
