<svg width="48" height="16" viewBox="0 0 48 16" fill="none" xmlns="http://www.w3.org/2000/svg">
<path d="M24 13.2655L3.06727 0.332186C2.89858 0.225703 2.69831 0.141521 2.47804 0.0845081C2.25777 0.0274957 2.02188 -0.00121526 1.78402 3.94231e-05C1.54616 0.0012941 1.31105 0.0324887 1.09231 0.0918168C0.873559 0.151145 0.675515 0.237429 0.509632 0.345676C0.34375 0.453923 0.213324 0.581984 0.125902 0.722447C0.0384801 0.862911 -0.00420192 1.01299 0.000325975 1.164C0.00485387 1.315 0.0565018 1.46394 0.152281 1.60219C0.24806 1.74044 0.386068 1.86525 0.558319 1.96941L22.7455 15.6765C23.0814 15.8839 23.5314 16 24 16C24.4686 16 24.9186 15.8839 25.2545 15.6765L47.4417 1.96941C47.6139 1.86525 47.7519 1.74044 47.8477 1.60219C47.9435 1.46394 47.9951 1.315 47.9997 1.164C48.0042 1.01299 47.9615 0.862911 47.8741 0.722447C47.7867 0.581984 47.6563 0.453923 47.4904 0.345676C47.3245 0.237429 47.1264 0.151145 46.9077 0.0918168C46.6889 0.0324887 46.4538 0.0012941 46.216 3.94231e-05C45.9781 -0.00121526 45.7422 0.0274957 45.522 0.0845081C45.3017 0.141521 45.1014 0.225703 44.9327 0.332186L24 13.2655Z" fill="#C0D7D7"/>
</svg>
