<svg width="24" height="24" viewBox="0 0 24 24" fill="none" xmlns="http://www.w3.org/2000/svg">
<path d="M8.00045 9.99768C8.00045 9.73246 8.10581 9.47811 8.29334 9.29057C8.48087 9.10303 8.73522 8.99768 9.00043 8.99768H15.0002C15.2655 8.99768 15.5198 9.10303 15.7073 9.29057C15.8949 9.47811 16.0002 9.73246 16.0002 9.99768C16.0002 10.2629 15.8949 10.5172 15.7073 10.7048C15.5198 10.8923 15.2655 10.9977 15.0002 10.9977H9.00043C8.73522 10.9977 8.48087 10.8923 8.29334 10.7048C8.10581 10.5172 8.00045 10.2629 8.00045 9.99768ZM9.00043 12.9977C8.73522 12.9977 8.48087 13.103 8.29334 13.2906C8.10581 13.4781 8.00045 13.7325 8.00045 13.9977C8.00045 14.2629 8.10581 14.5172 8.29334 14.7048C8.48087 14.8923 8.73522 14.9977 9.00043 14.9977H13.0003C13.2655 14.9977 13.5199 14.8923 13.7074 14.7048C13.8949 14.5172 14.0003 14.2629 14.0003 13.9977C14.0003 13.7325 13.8949 13.4781 13.7074 13.2906C13.5199 13.103 13.2655 12.9977 13.0003 12.9977H9.00043ZM0.000690512 11.9977C0.00120081 9.35577 0.873515 6.78787 2.48231 4.69234C4.09111 2.5968 6.34647 1.09076 8.89851 0.407847C11.4506 -0.275067 14.1566 -0.096682 16.5969 0.91533C19.0373 1.92734 21.0754 3.71641 22.3952 6.005C23.715 8.2936 24.2427 10.9538 23.8965 13.5729C23.5502 16.192 22.3493 18.6236 20.4801 20.4906C18.6108 22.3575 16.1778 23.5554 13.5583 23.8984C10.9388 24.2414 8.27939 23.7104 5.99251 22.3877L1.31665 23.9477C1.1439 24.0053 0.958679 24.0147 0.780976 23.9749C0.603273 23.935 0.439837 23.8473 0.308306 23.7213C0.176776 23.5954 0.082147 23.4359 0.0346317 23.26C-0.0128836 23.0842 -0.0114805 22.8987 0.0386895 22.7237L1.46265 17.7417C0.502716 15.9794 6.48379e-05 14.0045 0.000690512 11.9977ZM12.0003 1.99768C10.2348 1.99757 8.50061 2.46495 6.97419 3.35229C5.44778 4.23964 4.18351 5.51533 3.3099 7.04968C2.43628 8.58403 1.98448 10.3223 2.00041 12.0879C2.01634 13.8535 2.49944 15.5833 3.40059 17.1017C3.46992 17.219 3.51456 17.3492 3.53175 17.4843C3.54895 17.6195 3.53834 17.7568 3.50059 17.8877L2.48262 21.4477L5.79852 20.3437C5.93934 20.2967 6.08887 20.2816 6.23623 20.2996C6.3836 20.3176 6.52511 20.3682 6.65049 20.4477C7.96099 21.2771 9.44644 21.7902 10.9894 21.9467C12.5324 22.1031 14.0906 21.8985 15.5409 21.349C16.9912 20.7995 18.2938 19.9202 19.3457 18.7806C20.3977 17.6409 21.1702 16.2722 21.6021 14.7827C22.034 13.2931 22.1135 11.7235 21.8344 10.1979C21.5553 8.67227 20.9251 7.2325 19.9938 5.99237C19.0624 4.75224 17.8554 3.74575 16.4681 3.05245C15.0808 2.35915 13.5512 1.99805 12.0003 1.99768Z" fill="#979797"/>
</svg>
