<svg width="40" height="40" viewBox="0 0 40 40" fill="none" xmlns="http://www.w3.org/2000/svg">
<path d="M32.4948 16.3557C32.4983 16.2504 32.5 16.1447 32.5 16.0386C32.5 10.8609 28.3587 6.66357 23.25 6.66357C19.1975 6.66357 15.7536 9.30486 14.5029 12.9816C13.6047 12.5065 12.5833 12.2379 11.5 12.2379C7.91015 12.2379 5 15.1874 5 18.8257C5 22.4641 7.91015 25.4136 11.5 25.4136L23.25 25.4136C23.2542 25.4136 23.2583 25.4136 23.2625 25.4136H30.25C32.8734 25.4136 35 23.2582 35 20.5994C35 18.7635 33.9861 17.1677 32.4948 16.3557Z" fill="#CFF9FF"/>
<path fill-rule="evenodd" clip-rule="evenodd" d="M11.7113 27.785C11.8535 27.3473 12.3236 27.1078 12.7613 27.25C13.1991 27.3922 13.4386 27.8623 13.2964 28.3001L11.8292 32.8155C11.687 33.2532 11.2169 33.4927 10.7792 33.3505C10.3415 33.2083 10.1019 32.7382 10.2441 32.3005L11.7113 27.785ZM16.1167 27.25C15.679 27.1078 15.2089 27.3473 15.0666 27.785L12.2272 36.5239C12.085 36.9616 12.3245 37.4317 12.7622 37.574C13.1999 37.7162 13.6701 37.4766 13.8123 37.0389L16.6517 28.3001C16.7939 27.8623 16.5544 27.3922 16.1167 27.25ZM26.1466 27.25C25.7089 27.1078 25.2388 27.3473 25.0966 27.785L22.2571 36.5239C22.1149 36.9616 22.3545 37.4317 22.7922 37.574C23.2299 37.7162 23.7 37.4766 23.8422 37.0389L26.6817 28.3001C26.8239 27.8623 26.5844 27.3922 26.1466 27.25ZM18.422 27.785C18.5642 27.3473 19.0344 27.1078 19.4721 27.25C19.9098 27.3922 20.1493 27.8623 20.0071 28.3001L17.8538 34.9272C17.7116 35.3649 17.2415 35.6045 16.8038 35.4622C16.366 35.32 16.1265 34.8499 16.2687 34.4122L18.422 27.785ZM29.4605 27.25C29.0228 27.1078 28.5527 27.3473 28.4105 27.785L26.2572 34.4122C26.1149 34.8499 26.3545 35.32 26.7922 35.4622C27.2299 35.6045 27.7 35.3649 27.8423 34.9272L29.9956 28.3001C30.1378 27.8623 29.8982 27.3922 29.4605 27.25ZM22.8273 27.25C22.3895 27.1078 21.9194 27.3473 21.7772 27.785L20.31 32.3005C20.1678 32.7382 20.4074 33.2083 20.8451 33.3505C21.2828 33.4927 21.7529 33.2532 21.8951 32.8155L23.3623 28.3001C23.5045 27.8623 23.265 27.3922 22.8273 27.25Z" fill="#B4F5F2"/>
</svg>
