<svg width="40" height="40" viewBox="0 0 40 40" fill="none" xmlns="http://www.w3.org/2000/svg">
<path d="M10.3698 25.5973C6.02344 25.5973 2.5 22.0738 2.5 17.7274C2.5 13.3811 6.02344 9.85762 10.3698 9.85762C11.3123 9.85762 12.216 10.0233 13.0535 10.3271C14.7059 6.28526 18.6772 3.4375 23.3136 3.4375C29.4329 3.4375 34.3935 8.39813 34.3935 14.5174C34.3935 14.7869 34.3839 15.0543 34.3649 15.319C36.2154 16.1711 37.5 18.0418 37.5 20.2126C37.5 23.1865 35.0892 25.5973 32.1154 25.5973H10.3698Z" fill="#CFF9FF"/>
<path d="M29.0463 29.9091L27.9714 27.6682L26.8966 29.9092C26.7899 30.0959 26.7288 30.313 26.7288 30.5446C26.7288 31.2436 27.2852 31.8102 27.9714 31.8102C28.6577 31.8102 29.214 31.2436 29.214 30.5446C29.214 30.313 29.1529 30.0959 29.0463 29.9091Z" fill="#64D2FF"/>
<path d="M25.3185 34.4654L24.2436 32.2244L23.1688 34.4652C23.0621 34.652 23.001 34.8692 23.001 35.1008C23.001 35.7998 23.5574 36.3664 24.2436 36.3664C24.9299 36.3664 25.4862 35.7998 25.4862 35.1008C25.4862 34.8692 25.4252 34.6522 25.3185 34.4654Z" fill="#64D2FF"/>
<path d="M21.5907 29.9092L20.5158 27.6682L19.441 29.9091C19.3343 30.0959 19.2732 30.313 19.2732 30.5446C19.2732 31.2436 19.8295 31.8102 20.5158 31.8102C21.2021 31.8102 21.7584 31.2436 21.7584 30.5446C21.7584 30.313 21.6973 30.0959 21.5907 29.9092Z" fill="#64D2FF"/>
<path d="M18.0699 34.4653L16.9951 32.2244L15.9202 34.4654C15.8136 34.6521 15.7525 34.8692 15.7525 35.1008C15.7525 35.7998 16.3088 36.3664 16.9951 36.3664C17.6814 36.3664 18.2377 35.7998 18.2377 35.1008C18.2377 34.8692 18.1766 34.6521 18.0699 34.4653Z" fill="#64D2FF"/>
<path d="M14.3422 29.9092L13.2673 27.6682L12.1925 29.9091C12.0858 30.0958 12.0247 30.313 12.0247 30.5446C12.0247 31.2436 12.581 31.8102 13.2673 31.8102C13.9536 31.8102 14.5099 31.2436 14.5099 30.5446C14.5099 30.313 14.4488 30.096 14.3422 29.9092Z" fill="#64D2FF"/>
<path d="M10.6143 34.4653L9.53948 32.2244L8.46464 34.4653C8.35797 34.6521 8.29688 34.8692 8.29688 35.1008C8.29688 35.7998 8.85321 36.3664 9.53948 36.3664C10.2257 36.3664 10.7821 35.7998 10.7821 35.1008C10.7821 34.8692 10.721 34.6521 10.6143 34.4653Z" fill="#64D2FF"/>
</svg>
