<svg width="40" height="41" viewBox="0 0 40 41" fill="none" xmlns="http://www.w3.org/2000/svg">
<path d="M14.649 20.9734C14.649 20.7045 14.8666 20.4866 15.1349 20.4866C15.4033 20.4866 15.6208 20.7045 15.6208 20.9734V22.7317L16.4689 21.9763C16.668 21.7989 16.975 21.815 17.1546 22.0123C17.3341 22.2096 17.3183 22.5133 17.1191 22.6907L15.6208 24.0252V26.2055L17.6312 25.0573L18.023 23.2338C18.0789 22.974 18.3369 22.8081 18.5994 22.8633C18.8619 22.9185 19.0294 23.1739 18.9736 23.4337L18.7637 24.4105L20.1859 23.5982C20.4168 23.4664 20.7128 23.5458 20.8469 23.7757C20.9811 24.0056 20.9027 24.2988 20.6718 24.4307L19.1341 25.3089L20.2025 25.6523C20.4578 25.7344 20.5976 26.0056 20.5147 26.2581C20.4318 26.5105 20.1575 26.6486 19.9022 26.5665L18.0017 25.9557L16.143 27.0172L18.1483 28.1625L19.9245 27.5916C20.1798 27.5096 20.4541 27.6477 20.537 27.9001C20.6199 28.1526 20.4801 28.4238 20.2248 28.5059L19.2808 28.8093L20.6932 29.616C20.9241 29.7478 21.0025 30.0411 20.8683 30.271C20.7342 30.5009 20.4382 30.5803 20.2073 30.4485L18.6599 29.5647L18.8969 30.6679C18.9528 30.9277 18.7852 31.1831 18.5228 31.2383C18.2603 31.2935 18.0022 31.1276 17.9464 30.8678L17.5274 28.9179L15.6208 27.829V30.1645L17.0219 31.4124C17.2211 31.5898 17.237 31.8935 17.0574 32.0908C16.8778 32.2881 16.5708 32.3042 16.3717 32.1268L15.6208 31.458V33.0732C15.6208 33.3421 15.4033 33.5601 15.1349 33.5601C14.8666 33.5601 14.649 33.3421 14.649 33.0732V31.3262L13.8135 32.0704C13.6144 32.2477 13.3074 32.2316 13.1278 32.0344C12.9482 31.8371 12.9641 31.5334 13.1633 31.356L14.649 30.0326V27.8705L12.6073 29.0365L12.2191 30.8435C12.1632 31.1033 11.9052 31.2692 11.6427 31.214C11.3802 31.1588 11.2127 30.9034 11.2685 30.6436L11.4749 29.6833L10.0625 30.4899C9.83161 30.6218 9.53565 30.5423 9.40148 30.3124C9.2673 30.0826 9.34572 29.7893 9.57663 29.6574L11.1241 28.7736L10.0397 28.4251C9.78427 28.343 9.64446 28.0718 9.72738 27.8193C9.81031 27.5669 10.0846 27.4287 10.3399 27.5108L12.2565 28.1269L14.1994 27.0172L12.1527 25.8483L10.3605 26.4243C10.1051 26.5064 9.83085 26.3683 9.74792 26.1158C9.665 25.8634 9.80481 25.5922 10.0602 25.5101L11.0202 25.2015L9.59803 24.3893C9.36712 24.2574 9.2887 23.9641 9.42288 23.7343C9.55705 23.5044 9.85301 23.4249 10.0839 23.5568L11.6215 24.435L11.388 23.3481C11.3322 23.0882 11.4997 22.8329 11.7622 22.7777C12.0247 22.7225 12.2827 22.8884 12.3385 23.1482L12.754 25.0817L14.649 26.164V23.871L13.2605 22.6342C13.0613 22.4568 13.0454 22.1531 13.225 21.9558C13.4045 21.7585 13.7115 21.7424 13.9107 21.9198L14.649 22.5774V20.9734Z" fill="#64D2FF"/>
<path d="M21.5923 29.2022C21.5079 29.1159 21.4101 29.0397 21.2997 28.9769L21.2543 28.9511C21.5493 28.6129 21.6681 28.1327 21.5147 27.6676C21.4348 27.4251 21.2927 27.2229 21.1127 27.0709C21.2817 26.9213 21.4151 26.7261 21.4916 26.4941C21.6566 25.9937 21.5066 25.4758 21.1609 25.1362L21.2776 25.0698C21.9182 24.7053 22.1365 23.8889 21.7635 23.2524C21.3953 22.6239 20.5888 22.4074 19.9563 22.7672L19.8843 22.8082C19.7407 22.3681 19.3693 22.019 18.8909 21.9187C18.6415 21.8665 18.3914 21.8878 18.1651 21.9691C18.1249 21.7251 18.0157 21.4894 17.836 21.2927C17.4791 20.9021 16.9412 20.7722 16.4649 20.9155V20.7833C16.4649 20.0464 15.8687 19.449 15.1332 19.449C14.3978 19.449 13.8016 20.0464 13.8016 20.7833V20.8284C13.3552 20.736 12.8729 20.8746 12.5441 21.2344C12.3698 21.4253 12.2618 21.6529 12.2187 21.8891C11.9867 21.801 11.7283 21.7765 11.4707 21.8304C10.9616 21.9371 10.5738 22.3255 10.4526 22.8054L10.3102 22.7245C9.67773 22.3646 8.87121 22.5811 8.50299 23.2096C8.13004 23.8462 8.34832 24.6625 8.98892 25.027L9.03657 25.0541C8.73519 25.3928 8.6126 25.8778 8.76744 26.3474C8.84971 26.597 8.99781 26.8039 9.18533 26.9573C8.98774 27.1122 8.83153 27.3253 8.74617 27.5842C8.57965 28.0893 8.73399 28.6121 9.0865 28.9516L8.96674 29.0197C8.94201 29.0338 8.9179 29.0485 8.89444 29.0639C5.25327 28.3719 2.5 25.1664 2.5 21.3166C2.5 16.9615 6.02344 13.431 10.3698 13.431C11.3123 13.431 12.216 13.597 13.0535 13.9014C14.7059 9.85152 18.6772 6.99805 23.3136 6.99805C29.4329 6.99805 34.3935 11.9686 34.3935 18.1001C34.3935 18.3703 34.3839 18.6381 34.3649 18.9034C36.2154 19.7571 37.5 21.6317 37.5 23.8068C37.5 26.7866 35.0892 29.2022 32.1154 29.2022H21.5923Z" fill="#CFF9FF"/>
<path d="M30.7494 33.417L29.6746 31.1716L28.5997 33.4171C28.493 33.6042 28.432 33.8217 28.432 34.0538C28.432 34.7542 28.9883 35.322 29.6746 35.322C30.3608 35.322 30.9172 34.7542 30.9172 34.0538C30.9172 33.8217 30.8561 33.6042 30.7494 33.417Z" fill="#64D2FF"/>
<path d="M27.0216 37.9825L25.9468 35.737L24.872 37.9823C24.7653 38.1694 24.7041 38.387 24.7041 38.6191C24.7041 39.3195 25.2605 39.8873 25.9467 39.8873C26.633 39.8873 27.1893 39.3195 27.1893 38.6191C27.1893 38.3871 27.1283 38.1696 27.0216 37.9825Z" fill="#64D2FF"/>
<path d="M23.2938 33.4171L22.2189 31.1716L21.1441 33.417C21.0374 33.6042 20.9763 33.8217 20.9763 34.0538C20.9763 34.7542 21.5327 35.322 22.2189 35.322C22.9052 35.322 23.4615 34.7542 23.4615 34.0538C23.4615 33.8217 23.4005 33.6042 23.2938 33.4171Z" fill="#64D2FF"/>
<path d="M19.773 37.9823L18.6982 35.737L17.6233 37.9824C17.5167 38.1696 17.4556 38.3871 17.4556 38.6191C17.4556 39.3195 18.012 39.8873 18.6982 39.8873C19.3845 39.8873 19.9408 39.3195 19.9408 38.6191C19.9408 38.387 19.8797 38.1695 19.773 37.9823Z" fill="#64D2FF"/>
<path d="M16.0453 33.4171L14.9704 31.1716L13.8956 33.417C13.7889 33.6041 13.7278 33.8217 13.7278 34.0538C13.7278 34.7542 14.2841 35.322 14.9704 35.322C15.6567 35.322 16.213 34.7542 16.213 34.0538C16.213 33.8217 16.1519 33.6043 16.0453 33.4171Z" fill="#64D2FF"/>
<path d="M12.3174 37.9824L11.2426 35.737L10.1678 37.9824C10.0611 38.1695 10 38.3871 10 38.6191C10 39.3195 10.5563 39.8873 11.2426 39.8873C11.9289 39.8873 12.4852 39.3195 12.4852 38.6191C12.4852 38.3871 12.4241 38.1695 12.3174 37.9824Z" fill="#64D2FF"/>
</svg>
