<svg width="40" height="40" viewBox="0 0 40 40" fill="none" xmlns="http://www.w3.org/2000/svg">
<path d="M14.649 20.8223C14.649 20.554 14.8666 20.3364 15.1349 20.3364C15.4033 20.3364 15.6208 20.554 15.6208 20.8223V22.577L16.4689 21.8232C16.668 21.6462 16.975 21.6622 17.1546 21.8591C17.3341 22.056 17.3183 22.3591 17.1191 22.5361L15.6208 23.868V26.0439L17.6312 24.898L18.023 23.0782C18.0789 22.8189 18.3369 22.6533 18.5994 22.7084C18.8619 22.7635 19.0294 23.0183 18.9736 23.2776L18.7637 24.2525L20.1859 23.4419C20.4168 23.3102 20.7128 23.3895 20.8469 23.619C20.9811 23.8484 20.9027 24.1411 20.6718 24.2727L19.1341 25.1491L20.2025 25.4918C20.4578 25.5737 20.5976 25.8444 20.5147 26.0964C20.4318 26.3483 20.1575 26.4862 19.9022 26.4042L18.0017 25.7946L16.143 26.854L18.1483 27.997L19.9245 27.4273C20.1798 27.3454 20.4541 27.4832 20.537 27.7352C20.62 27.9871 20.4801 28.2578 20.2248 28.3397L19.2808 28.6425L20.6932 29.4476C20.9241 29.5792 21.0025 29.8718 20.8683 30.1013C20.7342 30.3307 20.4382 30.41 20.2073 30.2784L18.6599 29.3964L18.8969 30.4974C18.9528 30.7567 18.7852 31.0116 18.5228 31.0666C18.2603 31.1217 18.0022 30.9562 17.9464 30.6969L17.5274 28.7509L15.6208 27.6642V29.995L17.0219 31.2404C17.2211 31.4175 17.237 31.7206 17.0574 31.9174C16.8778 32.1143 16.5708 32.1304 16.3717 31.9534L15.6208 31.2859V32.8979C15.6208 33.1662 15.4033 33.3838 15.1349 33.3838C14.8666 33.3838 14.649 33.1662 14.649 32.8979V31.1543L13.8135 31.897C13.6144 32.0741 13.3074 32.058 13.1278 31.8611C12.9482 31.6642 12.9641 31.3611 13.1633 31.1841L14.649 29.8634V27.7055L12.6073 28.8692L12.2191 30.6726C12.1632 30.9319 11.9052 31.0975 11.6427 31.0424C11.3802 30.9873 11.2127 30.7324 11.2685 30.4731L11.4749 29.5147L10.0625 30.3197C9.83161 30.4514 9.53565 30.3721 9.40148 30.1426C9.2673 29.9132 9.34572 29.6205 9.57663 29.4889L11.1241 28.6069L10.0397 28.259C9.78427 28.1771 9.64446 27.9065 9.72738 27.6545C9.81031 27.4025 10.0846 27.2647 10.3399 27.3466L12.2565 27.9614L14.1994 26.854L12.1527 25.6874L10.3605 26.2623C10.1051 26.3442 9.83085 26.2064 9.74792 25.9544C9.665 25.7025 9.80481 25.4318 10.0602 25.3499L11.0202 25.0419L9.59803 24.2313C9.36712 24.0997 9.2887 23.807 9.42288 23.5776C9.55705 23.3482 9.85301 23.2689 10.0839 23.4005L11.6215 24.2769L11.388 23.1922C11.3322 22.9329 11.4997 22.678 11.7622 22.623C12.0247 22.5679 12.2827 22.7334 12.3385 22.9927L12.754 24.9224L14.649 26.0025V23.714L13.2605 22.4797C13.0613 22.3027 13.0454 21.9996 13.225 21.8027C13.4045 21.6059 13.7115 21.5898 13.9107 21.7668L14.649 22.4231V20.8223Z" fill="#64D2FF"/>
<path d="M21.5923 29.0348C21.5079 28.9486 21.4101 28.8726 21.2997 28.8099L21.2543 28.7841C21.5493 28.4466 21.6681 27.9673 21.5147 27.5032C21.4348 27.2612 21.2927 27.0593 21.1127 26.9077C21.2817 26.7584 21.4151 26.5636 21.4916 26.3321C21.6566 25.8327 21.5066 25.3158 21.1609 24.9768L21.2776 24.9106C21.9182 24.5468 22.1365 23.7321 21.7635 23.0968C21.3953 22.4696 20.5888 22.2535 19.9563 22.6126L19.8843 22.6535C19.7407 22.2143 19.3693 21.8658 18.8909 21.7658C18.6415 21.7137 18.3914 21.735 18.1651 21.8161C18.1249 21.5726 18.0157 21.3374 17.836 21.1411C17.4791 20.7513 16.9412 20.6215 16.4649 20.7646V20.6327C16.4649 19.8972 15.8687 19.301 15.1332 19.301C14.3978 19.301 13.8016 19.8972 13.8016 20.6327V20.6777C13.3552 20.5854 12.8729 20.7238 12.5441 21.0829C12.3698 21.2734 12.2618 21.5005 12.2187 21.7362C11.9867 21.6483 11.7283 21.6239 11.4707 21.6777C10.9616 21.7841 10.5738 22.1718 10.4526 22.6508L10.3102 22.5699C9.67773 22.2108 8.87121 22.4269 8.50299 23.0541C8.13004 23.6894 8.34832 24.5042 8.98892 24.8679L9.03657 24.895C8.73519 25.2329 8.6126 25.717 8.76744 26.1857C8.84971 26.4347 8.99781 26.6413 9.18533 26.7943C8.98774 26.9489 8.83153 27.1616 8.74617 27.42C8.57965 27.924 8.73399 28.4458 9.0865 28.7846L8.96674 28.8526C8.94201 28.8666 8.9179 28.8813 8.89444 28.8967C5.25327 28.2061 2.5 25.007 2.5 21.1649C2.5 16.8186 6.02344 13.2951 10.3698 13.2951C11.3123 13.2951 12.216 13.4608 13.0535 13.7646C14.7059 9.72276 18.6772 6.875 23.3136 6.875C29.4329 6.875 34.3935 11.8356 34.3935 17.9549C34.3935 18.2244 34.3839 18.4918 34.3649 18.7565C36.2154 19.6086 37.5 21.4793 37.5 23.6501C37.5 26.624 35.0892 29.0348 32.1154 29.0348H21.5923Z" fill="#CFF9FF"/>
</svg>
