<svg width="40" height="40" viewBox="0 0 40 40" fill="none" xmlns="http://www.w3.org/2000/svg">
<path fill-rule="evenodd" clip-rule="evenodd" d="M34.9859 20.7849C34.574 20.7637 34.2593 20.4124 34.2593 20C34.2593 19.5876 34.574 19.2363 34.9859 19.2151L36.5639 19.1337C37.0679 19.1077 37.5 19.4953 37.5 20C37.5 20.5047 37.0679 20.8923 36.5639 20.8663L34.9859 20.7849ZM32.3504 12.8683C32.557 13.2253 33.0055 13.373 33.3728 13.1855L34.7778 12.4682C35.2286 12.238 35.4089 11.6833 35.1554 11.2452C34.9019 10.807 34.3326 10.6893 33.9084 10.9654L32.5861 11.8258C32.2405 12.0507 32.1439 12.5114 32.3504 12.8683ZM27.1317 7.64955C27.4886 7.85609 27.9493 7.75952 28.1742 7.41389L29.0346 6.09164C29.3107 5.66738 29.193 5.09814 28.7548 4.84461C28.3167 4.59108 27.762 4.77136 27.5318 5.22219L26.8145 6.62722C26.627 6.99449 26.7747 7.44301 27.1317 7.64955ZM20 5.74074C20.4124 5.74074 20.7637 5.42604 20.7849 5.01415L20.8663 3.43606C20.8923 2.93207 20.5047 2.5 20 2.5C19.4953 2.5 19.1077 2.93207 19.1337 3.43606L19.2151 5.01415C19.2363 5.42604 19.5876 5.74074 20 5.74074ZM12.8683 7.64955C13.2253 7.44301 13.373 6.99449 13.1855 6.62722L12.4682 5.22219C12.238 4.77136 11.6833 4.59108 11.2452 4.84461C10.807 5.09815 10.6893 5.66738 10.9654 6.09164L11.8258 7.41389C12.0507 7.75952 12.5114 7.85609 12.8683 7.64955ZM7.64955 12.8683C7.85609 12.5114 7.75952 12.0507 7.41389 11.8258L6.09164 10.9654C5.66738 10.6893 5.09814 10.807 4.84461 11.2452C4.59108 11.6833 4.77136 12.238 5.22219 12.4682L6.62722 13.1855C6.99449 13.373 7.44301 13.2253 7.64955 12.8683ZM5.01415 19.2151C5.42604 19.2363 5.74074 19.5876 5.74074 20C5.74074 20.4124 5.42604 20.7637 5.01415 20.7849L3.43606 20.8663C2.93207 20.8923 2.5 20.5047 2.5 20C2.5 19.4953 2.93207 19.1077 3.43606 19.1337L5.01415 19.2151ZM7.64955 27.1317C7.44301 26.7747 6.99449 26.627 6.62722 26.8145L5.22219 27.5318C4.77136 27.762 4.59108 28.3167 4.84461 28.7548C5.09815 29.193 5.66738 29.3107 6.09165 29.0346L7.41389 28.1742C7.75952 27.9493 7.85609 27.4886 7.64955 27.1317ZM12.8683 32.3504C12.5114 32.1439 12.0507 32.2405 11.8258 32.5861L10.9654 33.9084C10.6893 34.3326 10.807 34.9019 11.2452 35.1554C11.6833 35.4089 12.238 35.2286 12.4682 34.7778L13.1855 33.3728C13.373 33.0055 13.2253 32.557 12.8683 32.3504ZM20 34.2593C19.5876 34.2593 19.2363 34.574 19.2151 34.9859L19.1337 36.5639C19.1077 37.0679 19.4953 37.5 20 37.5C20.5047 37.5 20.8923 37.0679 20.8663 36.5639L20.7849 34.9859C20.7637 34.574 20.4124 34.2593 20 34.2593ZM27.1317 32.3504C26.7747 32.557 26.627 33.0055 26.8145 33.3728L27.5318 34.7778C27.762 35.2286 28.3167 35.4089 28.7548 35.1554C29.193 34.9019 29.3107 34.3326 29.0346 33.9084L28.1742 32.5861C27.9493 32.2405 27.4886 32.1439 27.1317 32.3504ZM32.3504 27.1317C32.1439 27.4886 32.2405 27.9493 32.5861 28.1742L33.9084 29.0346C34.3326 29.3107 34.9019 29.193 35.1554 28.7548C35.4089 28.3167 35.2286 27.762 34.7778 27.5318L33.3728 26.8145C33.0055 26.627 32.557 26.7747 32.3504 27.1317Z" fill="#FFD400"/>
<path d="M31.9893 20C31.9893 26.6223 26.6209 31.9908 19.9986 31.9908C13.3763 31.9908 8.00781 26.6223 8.00781 20C8.00781 13.3777 13.3763 8.00928 19.9986 8.00928C26.6209 8.00928 31.9893 13.3777 31.9893 20Z" fill="#FFD400"/>
</svg>
