<svg width="28" height="28" viewBox="0 0 28 28" fill="none" xmlns="http://www.w3.org/2000/svg">
<path d="M14.0007 16.3335C14.2314 16.3335 14.457 16.2651 14.6488 16.1369C14.8407 16.0087 14.9902 15.8265 15.0785 15.6133C15.1668 15.4001 15.1899 15.1655 15.1449 14.9392C15.0999 14.7129 14.9888 14.505 14.8256 14.3419C14.6624 14.1787 14.4546 14.0676 14.2283 14.0226C14.0019 13.9776 13.7674 14.0007 13.5542 14.089C13.341 14.1773 13.1588 14.3268 13.0306 14.5187C12.9024 14.7105 12.834 14.9361 12.834 15.1668C12.834 15.4762 12.9569 15.773 13.1757 15.9918C13.3945 16.2106 13.6912 16.3335 14.0007 16.3335ZM19.834 16.3335C20.0647 16.3335 20.2903 16.2651 20.4822 16.1369C20.674 16.0087 20.8235 15.8265 20.9118 15.6133C21.0001 15.4001 21.0233 15.1655 20.9782 14.9392C20.9332 14.7129 20.8221 14.505 20.6589 14.3419C20.4958 14.1787 20.2879 14.0676 20.0616 14.0226C19.8353 13.9776 19.6007 14.0007 19.3875 14.089C19.1743 14.1773 18.9921 14.3268 18.8639 14.5187C18.7357 14.7105 18.6673 14.9361 18.6673 15.1668C18.6673 15.4762 18.7902 15.773 19.009 15.9918C19.2278 16.2106 19.5246 16.3335 19.834 16.3335ZM14.0007 21.0002C14.2314 21.0002 14.457 20.9317 14.6488 20.8035C14.8407 20.6754 14.9902 20.4931 15.0785 20.28C15.1668 20.0668 15.1899 19.8322 15.1449 19.6059C15.0999 19.3796 14.9888 19.1717 14.8256 19.0085C14.6624 18.8454 14.4546 18.7343 14.2283 18.6892C14.0019 18.6442 13.7674 18.6673 13.5542 18.7556C13.341 18.8439 13.1588 18.9935 13.0306 19.1853C12.9024 19.3772 12.834 19.6028 12.834 19.8335C12.834 20.1429 12.9569 20.4397 13.1757 20.6585C13.3945 20.8772 13.6912 21.0002 14.0007 21.0002ZM19.834 21.0002C20.0647 21.0002 20.2903 20.9317 20.4822 20.8035C20.674 20.6754 20.8235 20.4931 20.9118 20.28C21.0001 20.0668 21.0233 19.8322 20.9782 19.6059C20.9332 19.3796 20.8221 19.1717 20.6589 19.0085C20.4958 18.8454 20.2879 18.7343 20.0616 18.6892C19.8353 18.6442 19.6007 18.6673 19.3875 18.7556C19.1743 18.8439 18.9921 18.9935 18.8639 19.1853C18.7357 19.3772 18.6673 19.6028 18.6673 19.8335C18.6673 20.1429 18.7902 20.4397 19.009 20.6585C19.2278 20.8772 19.5246 21.0002 19.834 21.0002ZM8.16732 16.3335C8.39806 16.3335 8.62363 16.2651 8.81548 16.1369C9.00734 16.0087 9.15688 15.8265 9.24518 15.6133C9.33348 15.4001 9.35658 15.1655 9.31157 14.9392C9.26655 14.7129 9.15544 14.505 8.99228 14.3419C8.82911 14.1787 8.62123 14.0676 8.39492 14.0226C8.16861 13.9776 7.93403 14.0007 7.72085 14.089C7.50767 14.1773 7.32547 14.3268 7.19727 14.5187C7.06908 14.7105 7.00065 14.9361 7.00065 15.1668C7.00065 15.4762 7.12357 15.773 7.34236 15.9918C7.56115 16.2106 7.8579 16.3335 8.16732 16.3335ZM22.1673 4.66683H21.0007V3.50016C21.0007 3.19074 20.8777 2.894 20.6589 2.6752C20.4402 2.45641 20.1434 2.3335 19.834 2.3335C19.5246 2.3335 19.2278 2.45641 19.009 2.6752C18.7902 2.894 18.6673 3.19074 18.6673 3.50016V4.66683H9.33398V3.50016C9.33398 3.19074 9.21107 2.894 8.99228 2.6752C8.77348 2.45641 8.47674 2.3335 8.16732 2.3335C7.8579 2.3335 7.56115 2.45641 7.34236 2.6752C7.12357 2.894 7.00065 3.19074 7.00065 3.50016V4.66683H5.83398C4.90573 4.66683 4.01549 5.03558 3.35911 5.69196C2.70273 6.34833 2.33398 7.23857 2.33398 8.16683V22.1668C2.33398 23.0951 2.70273 23.9853 3.35911 24.6417C4.01549 25.2981 4.90573 25.6668 5.83398 25.6668H22.1673C23.0956 25.6668 23.9858 25.2981 24.6422 24.6417C25.2986 23.9853 25.6673 23.0951 25.6673 22.1668V8.16683C25.6673 7.23857 25.2986 6.34833 24.6422 5.69196C23.9858 5.03558 23.0956 4.66683 22.1673 4.66683ZM23.334 22.1668C23.334 22.4762 23.2111 22.773 22.9923 22.9918C22.7735 23.2106 22.4767 23.3335 22.1673 23.3335H5.83398C5.52457 23.3335 5.22782 23.2106 5.00903 22.9918C4.79023 22.773 4.66732 22.4762 4.66732 22.1668V11.6668H23.334V22.1668ZM23.334 9.3335H4.66732V8.16683C4.66732 7.85741 4.79023 7.56066 5.00903 7.34187C5.22782 7.12308 5.52457 7.00016 5.83398 7.00016H22.1673C22.4767 7.00016 22.7735 7.12308 22.9923 7.34187C23.2111 7.56066 23.334 7.85741 23.334 8.16683V9.3335ZM8.16732 21.0002C8.39806 21.0002 8.62363 20.9317 8.81548 20.8035C9.00734 20.6754 9.15688 20.4931 9.24518 20.28C9.33348 20.0668 9.35658 19.8322 9.31157 19.6059C9.26655 19.3796 9.15544 19.1717 8.99228 19.0085C8.82911 18.8454 8.62123 18.7343 8.39492 18.6892C8.16861 18.6442 7.93403 18.6673 7.72085 18.7556C7.50767 18.8439 7.32547 18.9935 7.19727 19.1853C7.06908 19.3772 7.00065 19.6028 7.00065 19.8335C7.00065 20.1429 7.12357 20.4397 7.34236 20.6585C7.56115 20.8772 7.8579 21.0002 8.16732 21.0002Z" fill="#4FBDB7"/>
</svg>
