<svg width="22" height="28" viewBox="0 0 22 28" fill="none" xmlns="http://www.w3.org/2000/svg">
<path d="M1.1001 11.0424H1.10011V11.0374C1.10011 5.71175 5.52355 1.3373 11 1.3373C16.476 1.3373 20.8999 5.71131 20.8999 11.0441L20.8999 11.0492C20.9178 14.9609 18.4197 18.7454 15.709 21.6628C14.3755 23.0981 13.037 24.2738 12.0309 25.091C11.6219 25.4231 11.2693 25.6948 10.9961 25.8995C10.0156 25.1764 8.05998 23.6399 6.13684 21.5554C3.48681 18.683 1.08213 14.9667 1.1001 11.0424ZM5.4 11.0374C5.4 14.0004 7.95514 16.3468 11 16.3468C14.0413 16.3468 16.6 14.0172 16.6 11.0441C16.6 8.13804 14.3239 5.64141 11 5.64141C7.92561 5.64141 5.4 8.10255 5.4 11.0374Z" stroke="#4FBDB7" stroke-width="2.2"/>
</svg>
