<svg width="23" height="23" viewBox="0 0 23 23" fill="none" xmlns="http://www.w3.org/2000/svg">
<path d="M11.5 11.5C9.91875 11.5 8.5651 10.937 7.43906 9.81094C6.31302 8.6849 5.75 7.33125 5.75 5.75C5.75 4.16875 6.31302 2.8151 7.43906 1.68906C8.5651 0.563021 9.91875 0 11.5 0C13.0812 0 14.4349 0.563021 15.5609 1.68906C16.687 2.8151 17.25 4.16875 17.25 5.75C17.25 7.33125 16.687 8.6849 15.5609 9.81094C14.4349 10.937 13.0812 11.5 11.5 11.5ZM0 23V18.975C0 18.1604 0.209875 17.412 0.629625 16.7296C1.04938 16.0473 1.60617 15.526 2.3 15.1656C3.78542 14.4229 5.29479 13.8661 6.82812 13.4952C8.36146 13.1244 9.91875 12.9385 11.5 12.9375C13.0812 12.9365 14.6385 13.1225 16.1719 13.4952C17.7052 13.868 19.2146 14.4248 20.7 15.1656C21.3948 15.525 21.9521 16.0463 22.3718 16.7296C22.7916 17.4129 23.001 18.1614 23 18.975V23H0ZM2.875 20.125H20.125V18.975C20.125 18.7115 20.0594 18.4719 19.9281 18.2563C19.7968 18.0406 19.6228 17.8729 19.4062 17.7531C18.1125 17.1063 16.8068 16.6213 15.4891 16.2984C14.1714 15.9754 12.8417 15.8135 11.5 15.8125C10.1583 15.8115 8.82865 15.9735 7.51094 16.2984C6.19323 16.6233 4.8875 17.1082 3.59375 17.7531C3.37812 17.8729 3.20419 18.0406 3.07194 18.2563C2.93969 18.4719 2.87404 18.7115 2.875 18.975V20.125ZM11.5 8.625C12.2906 8.625 12.9677 8.34373 13.5312 7.78119C14.0947 7.21865 14.376 6.54158 14.375 5.75C14.374 4.95842 14.0928 4.28183 13.5312 3.72025C12.9696 3.15867 12.2925 2.87692 11.5 2.875C10.7075 2.87308 10.0309 3.15483 9.47025 3.72025C8.90962 4.28567 8.62787 4.96225 8.625 5.75C8.62212 6.53775 8.90387 7.21481 9.47025 7.78119C10.0366 8.34756 10.7132 8.62883 11.5 8.625Z" fill="#4FBDB7"/>
</svg>
